<?xml version="1.0" encoding="utf-8"?>
<!-- Generator: Adobe Illustrator 25.2.3, SVG Export Plug-In . SVG Version: 6.00 Build 0)  -->
<svg version="1.1" id="Layer_1" xmlns="http://www.w3.org/2000/svg" xmlns:xlink="http://www.w3.org/1999/xlink" x="0px" y="0px"
	 viewBox="0 0 75.8 210.1" style="enable-background:new 0 0 75.8 210.1;" xml:space="preserve">
<style type="text/css">
	.st0{display:none;}
	.st1{display:inline;}
</style>
<g class="st0">
	<defs>
		<polygon id="SVGID_1_" points="36.7,143.6 37.4,145 39.2,143 40.7,137.9 40.7,135.2 42.5,132.1 42.3,129.9 43.4,127.7 42.8,124.7 
			46.1,117.1 46.2,115.4 47.5,114.7 48.3,111.2 47.1,110.6 46.3,109 47.2,100.2 48.7,97.4 50.1,97.1 49.6,91.1 50.7,87.6 50.1,85.1 
			50.4,79.4 52.3,78.1 52,75.6 50.5,77.1 49.8,76.7 48.9,74.9 51,72.4 52.3,66.5 50.4,65.1 49,69.2 46.5,69.7 44.9,69.2 43.2,69.4 
			41.6,69.2 40.7,72.8 40.1,74.5 38.9,74.6 36.1,87.7 33.9,93.7 30.3,100 23.5,106.3 30,122.7 30.3,125.7 31.4,126.6 36.4,139.8 		
			"/>
	</defs>
	<clipPath id="SVGID_2_" class="st1">
		<use xlink:href="#SVGID_1_"  style="overflow:visible;"/>
	</clipPath>
	
		<use xlink:href="#SVGID_1_"  style="display:inline;overflow:visible;fill:none;stroke:#FFFFFF;stroke-width:0.25;stroke-miterlimit:10;"/>
</g>
<g>
	<defs>
		<polygon id="SVGID_3_" points="34.8,206.4 36.7,210.1 41.4,205 45.3,191.4 45.3,184.4 50,176.3 49.6,170.4 52.3,164.6 50.8,156.8 
			59.4,136.6 59.8,132.2 63.3,130.4 65.2,121.2 62.1,119.7 60.1,115.3 62.5,92.2 66.4,84.9 69.9,84.1 68.7,68.3 71.5,59.1 
			69.9,52.5 70.7,37.5 75.8,34.2 75,27.5 71.1,31.6 69.1,30.5 66.8,25.7 72.3,19.1 75.8,3.7 70.7,0 67.2,10.7 60.5,12.1 56.2,10.7 
			51.9,11.4 47.6,10.7 45.3,20.2 43.7,24.6 40.6,25 33.2,59.5 27.3,75.3 18,91.8 0,108.4 17.2,151.3 18,159.4 20.7,161.6 34,196.5 
					"/>
	</defs>
	<clipPath id="SVGID_4_">
		<use xlink:href="#SVGID_3_"  style="overflow:visible;"/>
	</clipPath>
	<use xlink:href="#SVGID_3_"  style="overflow:visible;fill:none;stroke:#FFFFFF;stroke-miterlimit:10;"/>
</g>
</svg>
