<?xml version="1.0" encoding="UTF-8"?>
<svg id="Layer_2" data-name="Layer 2" xmlns="http://www.w3.org/2000/svg" viewBox="0 0 49.03 25.28">
  <defs>
    <style>
      .cls-1 {
        fill: #d5de00;
      }

      .cls-2 {
        fill: #a02a28;
      }
    </style>
  </defs>
  <g id="Layer_1-2" data-name="Layer 1">
    <g>
      <g>
        <rect class="cls-2" x="21.88" y="18.29" width="2.29" height="2.29"/>
        <rect class="cls-2" x="19.6" y="16" width="2.29" height="2.29"/>
        <rect class="cls-2" x="17.31" y="13.72" width="2.29" height="2.29"/>
        <rect class="cls-2" x="15.02" y="11.43" width="2.29" height="2.29"/>
        <rect class="cls-2" x="12.74" y="9.14" width="2.29" height="2.29"/>
        <rect class="cls-2" x="10.45" y="6.86" width="2.29" height="2.29"/>
        <rect class="cls-2" x="8.17" y="4.57" width="2.29" height="2.29"/>
        <rect class="cls-2" x="5.88" y="2.29" width="2.29" height="2.29"/>
        <rect class="cls-2" x="3.59" y="0" width="2.29" height="2.29"/>
      </g>
      <g>
        <rect class="cls-2" x="24.86" y="18.29" width="2.29" height="2.29"/>
        <rect class="cls-2" x="27.14" y="16" width="2.29" height="2.29"/>
        <rect class="cls-2" x="29.43" y="13.72" width="2.29" height="2.29"/>
        <rect class="cls-2" x="31.72" y="11.43" width="2.29" height="2.29"/>
        <rect class="cls-2" x="34" y="9.14" width="2.29" height="2.29"/>
        <rect class="cls-2" x="36.29" y="6.86" width="2.29" height="2.29"/>
        <rect class="cls-2" x="38.57" y="4.57" width="2.29" height="2.29"/>
        <rect class="cls-2" x="40.86" y="2.29" width="2.29" height="2.29"/>
        <rect class="cls-2" x="43.15" y="0" width="2.29" height="2.29"/>
      </g>
      <g>
        <rect class="cls-2" x="21.88" y="13.72" width="2.29" height="2.29"/>
        <rect class="cls-2" x="19.6" y="11.43" width="2.29" height="2.29"/>
        <rect class="cls-2" x="17.31" y="9.14" width="2.29" height="2.29"/>
        <rect class="cls-2" x="15.02" y="6.86" width="2.29" height="2.29"/>
        <rect class="cls-2" x="12.74" y="4.57" width="2.29" height="2.29"/>
        <rect class="cls-2" x="10.45" y="2.29" width="2.29" height="2.29"/>
        <rect class="cls-2" x="8.17" y="0" width="2.29" height="2.29"/>
      </g>
      <g>
        <rect class="cls-2" x="24.86" y="13.72" width="2.29" height="2.29"/>
        <rect class="cls-2" x="27.14" y="11.43" width="2.29" height="2.29"/>
        <rect class="cls-2" x="29.43" y="9.14" width="2.29" height="2.29"/>
        <rect class="cls-2" x="31.72" y="6.86" width="2.29" height="2.29"/>
        <rect class="cls-2" x="34" y="4.57" width="2.29" height="2.29"/>
        <rect class="cls-2" x="36.29" y="2.29" width="2.29" height="2.29"/>
        <rect class="cls-2" x="38.57" y="0" width="2.29" height="2.29"/>
      </g>
      <g>
        <rect class="cls-2" x="24.17" y="13.03" width=".69" height=".69"/>
        <rect class="cls-2" x="24.17" y="12.24" width=".69" height=".69"/>
        <rect class="cls-2" x="24.17" y="11.43" width=".69" height=".69"/>
      </g>
      <rect class="cls-2" x="21.88" y="9.14" width="2.29" height="2.29"/>
      <rect class="cls-2" x="24.86" y="9.14" width="2.29" height="2.29"/>
      <g>
        <rect class="cls-1" x="24.17" y="8.46" width=".69" height=".69"/>
        <rect class="cls-1" x="24.17" y="7.67" width=".69" height=".69"/>
        <rect class="cls-1" x="24.17" y="6.86" width=".69" height=".69"/>
      </g>
      <polygon class="cls-1" points="21.88 4.48 24.17 6.86 24.86 6.86 27.14 4.48 21.88 4.48"/>
      <rect class="cls-1" x="23.33" y="4.09" width=".4" height=".4"/>
      <g>
        <g>
          <rect class="cls-1" x="23.72" y="6.36" width=".5" height=".5"/>
          <rect class="cls-1" x="23.22" y="5.87" width=".5" height=".5"/>
          <rect class="cls-1" x="22.72" y="5.37" width=".5" height=".5"/>
        </g>
        <g>
          <rect class="cls-1" x="22.29" y="4.88" width=".5" height=".5"/>
          <rect class="cls-1" x="21.79" y="4.38" width=".5" height=".5"/>
          <rect class="cls-1" x="21.3" y="3.88" width=".5" height=".5"/>
        </g>
        <rect class="cls-1" x="20.8" y="3.39" width=".5" height=".5"/>
      </g>
      <g>
        <g>
          <rect class="cls-1" x="24.8" y="6.36" width=".5" height=".5"/>
          <rect class="cls-1" x="25.3" y="5.87" width=".5" height=".5"/>
          <rect class="cls-1" x="25.8" y="5.37" width=".5" height=".5"/>
        </g>
        <g>
          <rect class="cls-1" x="26.23" y="4.88" width=".5" height=".5"/>
          <rect class="cls-1" x="26.73" y="4.38" width=".5" height=".5"/>
          <rect class="cls-1" x="27.22" y="3.88" width=".5" height=".5"/>
        </g>
        <rect class="cls-1" x="27.72" y="3.39" width=".5" height=".5"/>
      </g>
      <g>
        <g>
          <rect class="cls-1" x="21.79" y="3.39" width=".5" height=".5"/>
          <rect class="cls-1" x="22.29" y="2.89" width=".5" height=".5"/>
          <rect class="cls-1" x="22.79" y="2.4" width=".5" height=".5"/>
        </g>
        <g>
          <rect class="cls-1" x="23.28" y="1.9" width=".5" height=".5"/>
          <rect class="cls-1" x="23.78" y="1.41" width=".5" height=".5"/>
        </g>
      </g>
      <g>
        <g>
          <rect class="cls-1" x="26.73" y="3.39" width=".5" height=".5"/>
          <rect class="cls-1" x="26.23" y="2.89" width=".5" height=".5"/>
          <rect class="cls-1" x="25.73" y="2.4" width=".5" height=".5"/>
        </g>
        <g>
          <rect class="cls-1" x="25.24" y="1.9" width=".5" height=".5"/>
          <rect class="cls-1" x="24.74" y="1.41" width=".5" height=".5"/>
        </g>
      </g>
      <rect class="cls-1" x="24.27" y=".93" width=".47" height=".47"/>
      <rect class="cls-1" x="23.33" y="3.65" width=".4" height=".4"/>
      <rect class="cls-1" x="23.33" y="3.22" width=".4" height=".4"/>
      <rect class="cls-1" x="23.33" y="2.78" width=".4" height=".4"/>
      <rect class="cls-1" x="25.29" y="4.07" width=".4" height=".4"/>
      <rect class="cls-1" x="25.29" y="3.64" width=".4" height=".4"/>
      <rect class="cls-1" x="25.29" y="3.2" width=".4" height=".4"/>
      <rect class="cls-1" x="25.29" y="2.76" width=".4" height=".4"/>
      <rect class="cls-1" x="24.31" y="4.07" width=".4" height=".4"/>
      <rect class="cls-1" x="24.31" y="3.64" width=".4" height=".4"/>
      <rect class="cls-1" x="24.31" y="3.2" width=".4" height=".4"/>
      <rect class="cls-1" x="24.31" y="2.76" width=".4" height=".4"/>
      <rect class="cls-1" x="24.31" y="2.33" width=".4" height=".4"/>
      <rect class="cls-1" x="24.31" y="1.89" width=".4" height=".4"/>
      <rect class="cls-1" x="23.79" y=".46" width=".47" height=".47"/>
      <rect class="cls-1" x="24.74" y=".46" width=".47" height=".47"/>
      <g>
        <rect class="cls-2" x="2.91" y="3.89" width=".69" height=".69"/>
        <rect class="cls-2" x="2.91" y="3.1" width=".69" height=".69"/>
        <rect class="cls-2" x="2.91" y="2.29" width=".69" height=".69"/>
      </g>
      <g>
        <rect class="cls-2" x="45.43" y="3.89" width=".69" height=".69"/>
        <rect class="cls-2" x="45.43" y="3.1" width=".69" height=".69"/>
        <rect class="cls-2" x="45.43" y="2.29" width=".69" height=".69"/>
      </g>
      <rect class="cls-2" x="2.22" y="4.57" width=".69" height=".69"/>
      <rect class="cls-2" x="3.59" y="4.57" width=".69" height=".69"/>
      <g>
        <rect class="cls-2" x="2.91" y="6.86" width=".69" height=".69"/>
        <rect class="cls-2" x="2.91" y="6.07" width=".69" height=".69"/>
        <rect class="cls-2" x="2.91" y="5.26" width=".69" height=".69"/>
      </g>
      <rect class="cls-2" x="44.75" y="4.57" width=".69" height=".69"/>
      <rect class="cls-2" x="46.12" y="4.57" width=".69" height=".69"/>
      <g>
        <rect class="cls-2" x="45.43" y="6.86" width=".69" height=".69"/>
        <rect class="cls-2" x="45.43" y="6.07" width=".69" height=".69"/>
        <rect class="cls-2" x="45.43" y="5.26" width=".69" height=".69"/>
      </g>
      <g>
        <polygon class="cls-2" points="2.91 7.55 2.91 10.29 0 10.29 2.91 7.55"/>
        <polyline class="cls-2" points="6.5 10.29 3.59 7.55 3.59 10.29"/>
        <g>
          <rect class="cls-2" x=".17" y="9.74" width=".55" height=".55"/>
          <rect class="cls-2" x=".72" y="9.19" width=".55" height=".55"/>
          <rect class="cls-2" x="1.26" y="8.64" width=".55" height=".55"/>
          <rect class="cls-2" x="1.81" y="8.1" width=".55" height=".55"/>
          <rect class="cls-2" x="2.36" y="7.55" width=".55" height=".55"/>
        </g>
        <g>
          <rect class="cls-2" x="5.78" y="9.74" width=".55" height=".55"/>
          <rect class="cls-2" x="5.24" y="9.19" width=".55" height=".55"/>
          <rect class="cls-2" x="4.69" y="8.64" width=".55" height=".55"/>
          <rect class="cls-2" x="4.14" y="8.1" width=".55" height=".55"/>
          <rect class="cls-2" x="3.59" y="7.55" width=".55" height=".55"/>
        </g>
      </g>
      <g>
        <polygon class="cls-2" points="45.43 7.55 45.43 10.29 42.53 10.29 45.43 7.55"/>
        <polyline class="cls-2" points="49.03 10.29 46.12 7.55 46.12 10.29"/>
        <g>
          <rect class="cls-2" x="42.69" y="9.74" width=".55" height=".55"/>
          <rect class="cls-2" x="43.24" y="9.19" width=".55" height=".55"/>
          <rect class="cls-2" x="43.79" y="8.64" width=".55" height=".55"/>
          <rect class="cls-2" x="44.34" y="8.1" width=".55" height=".55"/>
          <rect class="cls-2" x="44.89" y="7.55" width=".55" height=".55"/>
        </g>
        <g>
          <rect class="cls-2" x="48.31" y="9.74" width=".55" height=".55"/>
          <rect class="cls-2" x="47.76" y="9.19" width=".55" height=".55"/>
          <rect class="cls-2" x="47.22" y="8.64" width=".55" height=".55"/>
          <rect class="cls-2" x="46.67" y="8.1" width=".55" height=".55"/>
          <rect class="cls-2" x="46.12" y="7.55" width=".55" height=".55"/>
        </g>
      </g>
      <rect class="cls-2" x="24.16" y="22.17" width=".69" height=".69"/>
      <rect class="cls-2" x="24.16" y="20.58" width=".69" height=".69"/>
      <g>
        <rect class="cls-2" x="24.16" y="24.6" width=".69" height=".69"/>
        <rect class="cls-2" x="24.16" y="23.81" width=".69" height=".69"/>
        <rect class="cls-2" x="24.16" y="23" width=".69" height=".69"/>
      </g>
      <rect class="cls-2" x="23.48" y="21.37" width=".69" height=".69"/>
      <rect class="cls-2" x="24.85" y="21.37" width=".69" height=".69"/>
    </g>
  </g>
</svg>