<?xml version="1.0" encoding="UTF-8"?>
<svg id="Layer_2" data-name="Layer 2" xmlns="http://www.w3.org/2000/svg" viewBox="0 0 40.32 35.7">
  <defs>
    <style>
      .cls-1 {
        fill: #d5de00;
      }

      .cls-2 {
        fill: #f3ada8;
      }
    </style>
  </defs>
  <g id="Layer_1-2" data-name="Layer 1">
    <g>
      <g>
        <g>
          <g>
            <rect class="cls-2" x="7.02" y="6.08" width="1.1" height=".94"/>
            <rect class="cls-2" x="8.12" y="7.02" width="1.1" height=".94"/>
            <rect class="cls-2" x="9.22" y="7.96" width="1.1" height=".94"/>
            <rect class="cls-2" x="10.32" y="8.9" width="1.1" height=".94"/>
            <rect class="cls-2" x="11.42" y="9.84" width="1.1" height=".94"/>
            <rect class="cls-2" x="12.52" y="10.79" width="1.1" height=".94"/>
            <rect class="cls-2" x="13.62" y="11.73" width="1.1" height=".94"/>
            <rect class="cls-2" x="14.72" y="12.67" width="1.1" height=".94"/>
            <rect class="cls-2" x="15.82" y="13.62" width="1.1" height=".94"/>
            <rect class="cls-2" x="16.92" y="14.56" width="1.1" height=".94"/>
            <rect class="cls-2" x="18.02" y="15.5" width="1.1" height=".94"/>
          </g>
          <g>
            <rect class="cls-2" x="7.02" y="0" width="1.1" height=".94"/>
            <rect class="cls-2" x="8.12" y=".94" width="1.1" height=".94"/>
            <rect class="cls-2" x="9.22" y="1.89" width="1.1" height=".94"/>
            <rect class="cls-2" x="10.32" y="2.83" width="1.1" height=".94"/>
            <rect class="cls-2" x="11.42" y="3.77" width="1.1" height=".94"/>
            <rect class="cls-2" x="12.52" y="4.71" width="1.1" height=".94"/>
            <rect class="cls-2" x="13.62" y="5.66" width="1.1" height=".94"/>
            <rect class="cls-2" x="14.72" y="6.6" width="1.1" height=".94"/>
            <rect class="cls-2" x="15.82" y="7.54" width="1.1" height=".94"/>
            <rect class="cls-2" x="16.92" y="8.49" width="1.1" height=".94"/>
            <rect class="cls-2" x="18.02" y="9.43" width="1.1" height=".94"/>
          </g>
          <polygon class="cls-2" points="7.02 6.08 19.12 16.44 19.12 10.37 7.02 0 7.02 6.08"/>
        </g>
        <g>
          <g>
            <rect class="cls-1" x="10.32" y="9.84" width="1.1" height=".94"/>
            <rect class="cls-1" x="11.42" y="10.79" width="1.1" height=".94"/>
            <rect class="cls-1" x="12.52" y="11.73" width="1.1" height=".94"/>
            <rect class="cls-1" x="13.62" y="12.67" width="1.1" height=".94"/>
            <rect class="cls-1" x="14.72" y="13.62" width="1.1" height=".94"/>
            <rect class="cls-1" x="15.82" y="14.56" width="1.1" height=".94"/>
            <rect class="cls-1" x="16.92" y="15.5" width="1.1" height=".94"/>
            <rect class="cls-1" x="18.02" y="16.44" width="1.1" height=".94"/>
            <rect class="cls-1" x="9.22" y="8.9" width="1.1" height=".94"/>
            <rect class="cls-1" x="8.12" y="7.96" width="1.1" height=".94"/>
            <rect class="cls-1" x="7.02" y="7.02" width="1.1" height=".94"/>
          </g>
          <g>
            <rect class="cls-1" x="3.3" y="9.9" width="1.1" height=".94"/>
            <rect class="cls-1" x="4.4" y="10.84" width="1.1" height=".94"/>
            <rect class="cls-1" x="5.5" y="11.79" width="1.1" height=".94"/>
            <rect class="cls-1" x="6.6" y="12.73" width="1.1" height=".94"/>
            <rect class="cls-1" x="7.7" y="13.67" width="1.1" height=".94"/>
            <rect class="cls-1" x="8.8" y="14.61" width="1.1" height=".94"/>
            <rect class="cls-1" x="9.9" y="15.56" width="1.1" height=".94"/>
            <rect class="cls-1" x="11" y="16.5" width="1.1" height=".94"/>
            <rect class="cls-1" x="2.2" y="8.96" width="1.1" height=".94"/>
            <rect class="cls-1" x="1.1" y="8.01" width="1.1" height=".94"/>
            <rect class="cls-1" x="0" y="7.07" width="1.1" height=".94"/>
          </g>
          <polygon class="cls-1" points="19.12 17.39 12.1 17.44 0 7.07 7.02 7.02 19.12 17.39"/>
        </g>
      </g>
      <g>
        <g>
          <g>
            <rect class="cls-2" x="32.2" y="6.07" width="1.1" height=".94"/>
            <rect class="cls-2" x="31.1" y="7.01" width="1.1" height=".94"/>
            <rect class="cls-2" x="30" y="7.95" width="1.1" height=".94"/>
            <rect class="cls-2" x="28.9" y="8.89" width="1.1" height=".94"/>
            <rect class="cls-2" x="27.8" y="9.83" width="1.1" height=".94"/>
            <rect class="cls-2" x="26.7" y="10.78" width="1.1" height=".94"/>
            <rect class="cls-2" x="25.6" y="11.72" width="1.1" height=".94"/>
            <rect class="cls-2" x="24.5" y="12.66" width="1.1" height=".94"/>
            <rect class="cls-2" x="23.4" y="13.61" width="1.1" height=".94"/>
            <rect class="cls-2" x="22.3" y="14.55" width="1.1" height=".94"/>
            <rect class="cls-2" x="21.2" y="15.49" width="1.1" height=".94"/>
          </g>
          <g>
            <rect class="cls-2" x="32.2" y="0" width="1.1" height=".94"/>
            <rect class="cls-2" x="31.1" y=".93" width="1.1" height=".94"/>
            <rect class="cls-2" x="30" y="1.88" width="1.1" height=".94"/>
            <rect class="cls-2" x="28.9" y="2.82" width="1.1" height=".94"/>
            <rect class="cls-2" x="27.8" y="3.76" width="1.1" height=".94"/>
            <rect class="cls-2" x="26.7" y="4.7" width="1.1" height=".94"/>
            <rect class="cls-2" x="25.6" y="5.65" width="1.1" height=".94"/>
            <rect class="cls-2" x="24.5" y="6.59" width="1.1" height=".94"/>
            <rect class="cls-2" x="23.4" y="7.53" width="1.1" height=".94"/>
            <rect class="cls-2" x="22.3" y="8.48" width="1.1" height=".94"/>
            <rect class="cls-2" x="21.2" y="9.42" width="1.1" height=".94"/>
          </g>
          <polygon class="cls-2" points="33.3 6.07 21.2 16.43 21.2 10.36 33.3 0 33.3 6.07"/>
        </g>
        <g>
          <g>
            <rect class="cls-1" x="28.9" y="9.83" width="1.1" height=".94"/>
            <rect class="cls-1" x="27.8" y="10.78" width="1.1" height=".94"/>
            <rect class="cls-1" x="26.7" y="11.72" width="1.1" height=".94"/>
            <rect class="cls-1" x="25.6" y="12.66" width="1.1" height=".94"/>
            <rect class="cls-1" x="24.5" y="13.61" width="1.1" height=".94"/>
            <rect class="cls-1" x="23.4" y="14.55" width="1.1" height=".94"/>
            <rect class="cls-1" x="22.3" y="15.49" width="1.1" height=".94"/>
            <rect class="cls-1" x="21.2" y="16.43" width="1.1" height=".94"/>
            <rect class="cls-1" x="30" y="8.89" width="1.1" height=".94"/>
            <rect class="cls-1" x="31.1" y="7.95" width="1.1" height=".94"/>
            <rect class="cls-1" x="32.2" y="7.01" width="1.1" height=".94"/>
          </g>
          <g>
            <rect class="cls-1" x="35.92" y="9.89" width="1.1" height=".94"/>
            <rect class="cls-1" x="34.82" y="10.83" width="1.1" height=".94"/>
            <rect class="cls-1" x="33.72" y="11.78" width="1.1" height=".94"/>
            <rect class="cls-1" x="32.62" y="12.72" width="1.1" height=".94"/>
            <rect class="cls-1" x="31.52" y="13.66" width="1.1" height=".94"/>
            <rect class="cls-1" x="30.42" y="14.6" width="1.1" height=".94"/>
            <rect class="cls-1" x="29.32" y="15.55" width="1.1" height=".94"/>
            <rect class="cls-1" x="28.22" y="16.49" width="1.1" height=".94"/>
            <rect class="cls-1" x="37.02" y="8.95" width="1.1" height=".94"/>
            <rect class="cls-1" x="38.12" y="8" width="1.1" height=".94"/>
            <rect class="cls-1" x="39.22" y="7.06" width="1.1" height=".94"/>
          </g>
          <polygon class="cls-1" points="21.2 17.38 28.22 17.43 40.32 7.06 33.3 7.01 21.2 17.38"/>
        </g>
      </g>
      <g>
        <g>
          <g>
            <rect class="cls-2" x="7.02" y="28.67" width="1.1" height=".94"/>
            <rect class="cls-2" x="8.12" y="27.74" width="1.1" height=".94"/>
            <rect class="cls-2" x="9.22" y="26.8" width="1.1" height=".94"/>
            <rect class="cls-2" x="10.32" y="25.86" width="1.1" height=".94"/>
            <rect class="cls-2" x="11.42" y="24.91" width="1.1" height=".94"/>
            <rect class="cls-2" x="12.52" y="23.97" width="1.1" height=".94"/>
            <rect class="cls-2" x="13.62" y="23.03" width="1.1" height=".94"/>
            <rect class="cls-2" x="14.72" y="22.08" width="1.1" height=".94"/>
            <rect class="cls-2" x="15.82" y="21.14" width="1.1" height=".94"/>
            <rect class="cls-2" x="16.92" y="20.2" width="1.1" height=".94"/>
            <rect class="cls-2" x="18.02" y="19.26" width="1.1" height=".94"/>
          </g>
          <g>
            <rect class="cls-2" x="7.02" y="34.75" width="1.1" height=".94"/>
            <rect class="cls-2" x="8.12" y="33.81" width="1.1" height=".94"/>
            <rect class="cls-2" x="9.22" y="32.87" width="1.1" height=".94"/>
            <rect class="cls-2" x="10.32" y="31.93" width="1.1" height=".94"/>
            <rect class="cls-2" x="11.42" y="30.99" width="1.1" height=".94"/>
            <rect class="cls-2" x="12.52" y="30.04" width="1.1" height=".94"/>
            <rect class="cls-2" x="13.62" y="29.1" width="1.1" height=".94"/>
            <rect class="cls-2" x="14.72" y="28.16" width="1.1" height=".94"/>
            <rect class="cls-2" x="15.82" y="27.21" width="1.1" height=".94"/>
            <rect class="cls-2" x="16.92" y="26.27" width="1.1" height=".94"/>
            <rect class="cls-2" x="18.02" y="25.33" width="1.1" height=".94"/>
          </g>
          <polygon class="cls-2" points="7.02 29.62 19.12 19.26 19.12 25.33 7.02 35.69 7.02 29.62"/>
        </g>
        <g>
          <g>
            <rect class="cls-1" x="10.32" y="24.91" width="1.1" height=".94"/>
            <rect class="cls-1" x="11.42" y="23.97" width="1.1" height=".94"/>
            <rect class="cls-1" x="12.52" y="23.03" width="1.1" height=".94"/>
            <rect class="cls-1" x="13.62" y="22.08" width="1.1" height=".94"/>
            <rect class="cls-1" x="14.72" y="21.14" width="1.1" height=".94"/>
            <rect class="cls-1" x="15.82" y="20.2" width="1.1" height=".94"/>
            <rect class="cls-1" x="16.92" y="19.26" width="1.1" height=".94"/>
            <rect class="cls-1" x="18.02" y="18.31" width="1.1" height=".94"/>
            <rect class="cls-1" x="9.22" y="25.86" width="1.1" height=".94"/>
            <rect class="cls-1" x="8.12" y="26.8" width="1.1" height=".94"/>
            <rect class="cls-1" x="7.02" y="27.74" width="1.1" height=".94"/>
          </g>
          <g>
            <rect class="cls-1" x="3.3" y="24.86" width="1.1" height=".94"/>
            <rect class="cls-1" x="4.4" y="23.91" width="1.1" height=".94"/>
            <rect class="cls-1" x="5.5" y="22.97" width="1.1" height=".94"/>
            <rect class="cls-1" x="6.6" y="22.03" width="1.1" height=".94"/>
            <rect class="cls-1" x="7.7" y="21.09" width="1.1" height=".94"/>
            <rect class="cls-1" x="8.8" y="20.14" width="1.1" height=".94"/>
            <rect class="cls-1" x="9.9" y="19.2" width="1.1" height=".94"/>
            <rect class="cls-1" x="11" y="18.26" width="1.1" height=".94"/>
            <rect class="cls-1" x="2.2" y="25.8" width="1.1" height=".94"/>
            <rect class="cls-1" x="1.1" y="26.74" width="1.1" height=".94"/>
            <rect class="cls-1" x="0" y="27.69" width="1.1" height=".94"/>
          </g>
          <polygon class="cls-1" points="19.12 18.31 12.1 18.26 0 28.63 7.02 28.68 19.12 18.31"/>
        </g>
      </g>
      <g>
        <g>
          <g>
            <rect class="cls-2" x="32.2" y="28.68" width="1.1" height=".94"/>
            <rect class="cls-2" x="31.1" y="27.75" width="1.1" height=".94"/>
            <rect class="cls-2" x="30" y="26.81" width="1.1" height=".94"/>
            <rect class="cls-2" x="28.9" y="25.87" width="1.1" height=".94"/>
            <rect class="cls-2" x="27.8" y="24.92" width="1.1" height=".94"/>
            <rect class="cls-2" x="26.7" y="23.98" width="1.1" height=".94"/>
            <rect class="cls-2" x="25.6" y="23.04" width="1.1" height=".94"/>
            <rect class="cls-2" x="24.5" y="22.09" width="1.1" height=".94"/>
            <rect class="cls-2" x="23.4" y="21.15" width="1.1" height=".94"/>
            <rect class="cls-2" x="22.3" y="20.21" width="1.1" height=".94"/>
            <rect class="cls-2" x="21.2" y="19.27" width="1.1" height=".94"/>
          </g>
          <g>
            <rect class="cls-2" x="32.2" y="34.76" width="1.1" height=".94"/>
            <rect class="cls-2" x="31.1" y="33.82" width="1.1" height=".94"/>
            <rect class="cls-2" x="30" y="32.88" width="1.1" height=".94"/>
            <rect class="cls-2" x="28.9" y="31.94" width="1.1" height=".94"/>
            <rect class="cls-2" x="27.8" y="31" width="1.1" height=".94"/>
            <rect class="cls-2" x="26.7" y="30.05" width="1.1" height=".94"/>
            <rect class="cls-2" x="25.6" y="29.11" width="1.1" height=".94"/>
            <rect class="cls-2" x="24.5" y="28.17" width="1.1" height=".94"/>
            <rect class="cls-2" x="23.4" y="27.22" width="1.1" height=".94"/>
            <rect class="cls-2" x="22.3" y="26.28" width="1.1" height=".94"/>
            <rect class="cls-2" x="21.2" y="25.34" width="1.1" height=".94"/>
          </g>
          <polygon class="cls-2" points="33.3 29.63 21.2 19.27 21.2 25.34 33.3 35.7 33.3 29.63"/>
        </g>
        <g>
          <g>
            <rect class="cls-1" x="28.9" y="24.92" width="1.1" height=".94"/>
            <rect class="cls-1" x="27.8" y="23.98" width="1.1" height=".94"/>
            <rect class="cls-1" x="26.7" y="23.04" width="1.1" height=".94"/>
            <rect class="cls-1" x="25.6" y="22.09" width="1.1" height=".94"/>
            <rect class="cls-1" x="24.5" y="21.15" width="1.1" height=".94"/>
            <rect class="cls-1" x="23.4" y="20.21" width="1.1" height=".94"/>
            <rect class="cls-1" x="22.3" y="19.27" width="1.1" height=".94"/>
            <rect class="cls-1" x="21.2" y="18.32" width="1.1" height=".94"/>
            <rect class="cls-1" x="30" y="25.87" width="1.1" height=".94"/>
            <rect class="cls-1" x="31.1" y="26.81" width="1.1" height=".94"/>
            <rect class="cls-1" x="32.2" y="27.75" width="1.1" height=".94"/>
          </g>
          <g>
            <rect class="cls-1" x="35.92" y="24.87" width="1.1" height=".94"/>
            <rect class="cls-1" x="34.82" y="23.92" width="1.1" height=".94"/>
            <rect class="cls-1" x="33.72" y="22.98" width="1.1" height=".94"/>
            <rect class="cls-1" x="32.62" y="22.04" width="1.1" height=".94"/>
            <rect class="cls-1" x="31.52" y="21.1" width="1.1" height=".94"/>
            <rect class="cls-1" x="30.42" y="20.15" width="1.1" height=".94"/>
            <rect class="cls-1" x="29.32" y="19.21" width="1.1" height=".94"/>
            <rect class="cls-1" x="28.22" y="18.27" width="1.1" height=".94"/>
            <rect class="cls-1" x="37.02" y="25.81" width="1.1" height=".94"/>
            <rect class="cls-1" x="38.12" y="26.75" width="1.1" height=".94"/>
            <rect class="cls-1" x="39.22" y="27.7" width="1.1" height=".94"/>
          </g>
          <polygon class="cls-1" points="21.2 18.32 28.22 18.27 40.32 28.64 33.3 28.69 21.2 18.32"/>
        </g>
      </g>
    </g>
  </g>
</svg>