<?xml version="1.0" encoding="UTF-8"?>
<svg id="Layer_2" data-name="Layer 2" xmlns="http://www.w3.org/2000/svg" viewBox="0 0 63.45 37.32">
  <defs>
    <style>
      .cls-1 {
        fill: #f8c64c;
      }

      .cls-2 {
        fill: #a82061;
      }
    </style>
  </defs>
  <g id="Layer_1-2" data-name="Layer 1">
    <g>
      <g>
        <rect class="cls-1" x="22.39" y="14.93" width="3.73" height="3.73"/>
        <rect class="cls-1" x="26.13" y="14.93" width="3.73" height="3.73"/>
        <rect class="cls-1" x="29.86" y="14.93" width="3.73" height="3.73"/>
        <rect class="cls-1" x="33.59" y="14.93" width="3.73" height="3.73"/>
        <rect class="cls-1" x="37.32" y="14.93" width="3.73" height="3.73"/>
        <rect class="cls-1" x="29.86" y="11.2" width="3.73" height="3.73"/>
        <rect class="cls-1" x="29.86" y="7.46" width="3.73" height="3.73"/>
        <rect class="cls-1" x="29.86" y="3.73" width="3.73" height="3.73"/>
        <rect class="cls-1" x="26.13" y="3.73" width="3.73" height="3.73"/>
        <rect class="cls-1" x="33.59" y="3.73" width="3.73" height="3.73"/>
        <rect class="cls-1" x="33.59" y="0" width="3.73" height="3.73"/>
        <rect class="cls-1" x="26.13" y="0" width="3.73" height="3.73"/>
        <rect class="cls-1" x="25.7" y="18.66" width="3.73" height="3.73"/>
        <rect class="cls-1" x="29.44" y="18.66" width="3.73" height="3.73"/>
        <rect class="cls-1" x="33.17" y="18.66" width="3.73" height="3.73"/>
        <rect class="cls-1" x="25.7" y="22.39" width="3.73" height="3.73"/>
        <rect class="cls-1" x="29.44" y="22.39" width="3.73" height="3.73"/>
        <rect class="cls-1" x="33.17" y="22.39" width="3.73" height="3.73"/>
        <rect class="cls-1" x="29.44" y="26.13" width="3.73" height="3.73"/>
        <rect class="cls-1" x="29.44" y="29.86" width="3.73" height="3.73"/>
        <rect class="cls-1" x="29.44" y="33.59" width="3.73" height="3.73"/>
      </g>
      <g>
        <rect class="cls-1" x="7.46" y="0" width="3.73" height="3.73"/>
        <rect class="cls-1" x="3.73" y="0" width="3.73" height="3.73"/>
        <rect class="cls-1" x="0" y="3.73" width="3.73" height="3.73"/>
        <rect class="cls-1" x="7.46" y="3.73" width="3.73" height="3.73"/>
        <rect class="cls-1" x="3.73" y="3.73" width="3.73" height="3.73"/>
        <rect class="cls-1" x="11.2" y="3.73" width="3.73" height="3.73"/>
        <rect class="cls-1" x="0" y="7.46" width="3.73" height="3.73"/>
        <rect class="cls-1" x="7.46" y="7.46" width="3.73" height="3.73"/>
        <rect class="cls-1" x="3.73" y="7.46" width="3.73" height="3.73"/>
        <rect class="cls-1" x="11.2" y="7.46" width="3.73" height="3.73"/>
        <rect class="cls-1" x="14.93" y="7.46" width="3.73" height="3.73"/>
        <rect class="cls-1" x="0" y="11.2" width="3.73" height="3.73"/>
        <rect class="cls-1" x="7.46" y="11.2" width="3.73" height="3.73"/>
        <rect class="cls-2" x="3.73" y="11.2" width="3.73" height="3.73"/>
        <rect class="cls-2" x="11.2" y="11.2" width="3.73" height="3.73"/>
        <rect class="cls-1" x="14.93" y="11.2" width="3.73" height="3.73"/>
        <rect class="cls-1" x="18.66" y="11.2" width="3.73" height="3.73"/>
        <rect class="cls-1" x="0" y="14.93" width="3.73" height="3.73"/>
        <rect class="cls-2" x="7.46" y="14.93" width="3.73" height="3.73"/>
        <rect class="cls-1" x="3.73" y="14.93" width="3.73" height="3.73"/>
        <rect class="cls-1" x="11.2" y="14.93" width="3.73" height="3.73"/>
        <rect class="cls-2" x="14.93" y="14.93" width="3.73" height="3.73"/>
        <rect class="cls-1" x="18.66" y="14.93" width="3.73" height="3.73"/>
        <rect class="cls-1" x="0" y="18.66" width="3.73" height="3.73"/>
        <rect class="cls-1" x="7.46" y="18.66" width="3.73" height="3.73"/>
        <rect class="cls-2" x="3.73" y="18.66" width="3.73" height="3.73"/>
        <rect class="cls-1" x="11.2" y="18.66" width="3.73" height="3.73"/>
        <rect class="cls-1" x="14.93" y="18.66" width="3.73" height="3.73"/>
        <rect class="cls-2" x="0" y="22.39" width="3.73" height="3.73"/>
        <rect class="cls-1" x="7.46" y="22.39" width="3.73" height="3.73"/>
        <rect class="cls-1" x="3.73" y="22.39" width="3.73" height="3.73"/>
        <rect class="cls-1" x="11.2" y="22.39" width="3.73" height="3.73"/>
        <rect class="cls-1" x="14.93" y="22.39" width="3.73" height="3.73"/>
        <rect class="cls-1" x="0" y="26.13" width="3.73" height="3.73"/>
        <rect class="cls-1" x="7.46" y="26.13" width="3.73" height="3.73"/>
        <rect class="cls-1" x="3.73" y="26.13" width="3.73" height="3.73"/>
        <rect class="cls-1" x="11.2" y="26.13" width="3.73" height="3.73"/>
        <rect class="cls-1" x="14.93" y="26.13" width="3.73" height="3.73"/>
        <rect class="cls-1" x="5.6" y="29.86" width="3.73" height="3.73"/>
        <rect class="cls-1" x="1.87" y="29.86" width="3.73" height="3.73"/>
        <rect class="cls-1" x="9.33" y="29.86" width="3.73" height="3.73"/>
        <rect class="cls-1" x="5.6" y="33.59" width="3.73" height="3.73"/>
        <rect class="cls-2" x="5.6" y="3.73" width="3.73" height="3.73"/>
      </g>
      <g>
        <rect class="cls-1" x="52.25" y="0" width="3.73" height="3.73"/>
        <rect class="cls-1" x="55.98" y="0" width="3.73" height="3.73"/>
        <rect class="cls-1" x="59.71" y="3.73" width="3.73" height="3.73"/>
        <rect class="cls-1" x="52.25" y="3.73" width="3.73" height="3.73"/>
        <rect class="cls-1" x="55.98" y="3.73" width="3.73" height="3.73"/>
        <rect class="cls-1" x="48.52" y="3.73" width="3.73" height="3.73"/>
        <rect class="cls-1" x="59.71" y="7.46" width="3.73" height="3.73"/>
        <rect class="cls-1" x="52.25" y="7.46" width="3.73" height="3.73"/>
        <rect class="cls-1" x="55.98" y="7.46" width="3.73" height="3.73"/>
        <rect class="cls-1" x="48.52" y="7.46" width="3.73" height="3.73"/>
        <rect class="cls-1" x="44.79" y="7.46" width="3.73" height="3.73"/>
        <rect class="cls-1" x="59.71" y="11.2" width="3.73" height="3.73"/>
        <rect class="cls-1" x="52.25" y="11.2" width="3.73" height="3.73"/>
        <rect class="cls-2" x="55.98" y="11.2" width="3.73" height="3.73"/>
        <rect class="cls-2" x="48.52" y="11.2" width="3.73" height="3.73"/>
        <rect class="cls-1" x="44.79" y="11.2" width="3.73" height="3.73"/>
        <rect class="cls-1" x="41.05" y="11.2" width="3.73" height="3.73"/>
        <rect class="cls-1" x="59.71" y="14.93" width="3.73" height="3.73"/>
        <rect class="cls-2" x="52.25" y="14.93" width="3.73" height="3.73"/>
        <rect class="cls-1" x="55.98" y="14.93" width="3.73" height="3.73"/>
        <rect class="cls-1" x="48.52" y="14.93" width="3.73" height="3.73"/>
        <rect class="cls-2" x="44.79" y="14.93" width="3.73" height="3.73"/>
        <rect class="cls-1" x="41.05" y="14.93" width="3.73" height="3.73"/>
        <rect class="cls-1" x="59.71" y="18.66" width="3.73" height="3.73"/>
        <rect class="cls-1" x="52.25" y="18.66" width="3.73" height="3.73"/>
        <rect class="cls-2" x="55.98" y="18.66" width="3.73" height="3.73"/>
        <rect class="cls-1" x="48.52" y="18.66" width="3.73" height="3.73"/>
        <rect class="cls-1" x="44.79" y="18.66" width="3.73" height="3.73"/>
        <rect class="cls-2" x="59.71" y="22.39" width="3.73" height="3.73"/>
        <rect class="cls-1" x="52.25" y="22.39" width="3.73" height="3.73"/>
        <rect class="cls-1" x="55.98" y="22.39" width="3.73" height="3.73"/>
        <rect class="cls-1" x="48.52" y="22.39" width="3.73" height="3.73"/>
        <rect class="cls-1" x="44.79" y="22.39" width="3.73" height="3.73"/>
        <rect class="cls-1" x="59.71" y="26.13" width="3.73" height="3.73"/>
        <rect class="cls-1" x="52.25" y="26.13" width="3.73" height="3.73"/>
        <rect class="cls-1" x="55.98" y="26.13" width="3.73" height="3.73"/>
        <rect class="cls-1" x="48.52" y="26.13" width="3.73" height="3.73"/>
        <rect class="cls-1" x="44.79" y="26.13" width="3.73" height="3.73"/>
        <rect class="cls-1" x="54.12" y="29.86" width="3.73" height="3.73"/>
        <rect class="cls-1" x="57.85" y="29.86" width="3.73" height="3.73"/>
        <rect class="cls-1" x="50.38" y="29.86" width="3.73" height="3.73"/>
        <rect class="cls-1" x="54.12" y="33.59" width="3.73" height="3.73"/>
        <rect class="cls-2" x="54.12" y="3.73" width="3.73" height="3.73"/>
      </g>
    </g>
  </g>
</svg>