<?xml version="1.0" encoding="UTF-8"?>
<svg id="Layer_2" data-name="Layer 2" xmlns="http://www.w3.org/2000/svg" viewBox="0 0 56.29 56.29">
  <defs>
    <style>
      .cls-1 {
        fill: #d93a28;
      }

      .cls-2 {
        fill: #5d5f42;
      }

      .cls-3 {
        fill: #7edfec;
      }
    </style>
  </defs>
  <g id="Layer_1-2" data-name="Layer 1">
    <g>
      <path class="cls-2" d="M5.81,12.9C14.23,.57,31.05-2.61,43.38,5.81c12.33,8.42,15.5,25.24,7.08,37.57-8.42,12.33-25.24,15.5-37.57,7.08C1.79,42.89-1.89,28.49,3.64,16.69c.61-1.3,1.33-2.57,2.17-3.8Z"/>
      <g>
        <rect class="cls-1" x="2.55" y="15.6" width="2.19" height="2.19" transform="translate(-13.02 12.9) rotate(-64.88)"/>
        <rect class="cls-1" x="1.44" y="18.34" width="2.19" height="2.19" transform="translate(-16.67 15.56) rotate(-71.18)"/>
        <rect class="cls-1" x=".65" y="21.14" width="2.19" height="2.19" transform="translate(-20.33 19.09) rotate(-77.4)"/>
        <rect class="cls-1" x=".18" y="23.99" width="2.19" height="2.19" transform="translate(-23.79 23.53) rotate(-83.55)"/>
        <rect class="cls-1" x="0" y="26.85" width="2.19" height="2.19" transform="translate(-26.85 28.86) rotate(-89.63)"/>
        <rect class="cls-1" x=".14" y="29.7" width="2.19" height="2.19" transform="translate(-3.03 .27) rotate(-5.66)"/>
        <rect class="cls-1" x=".57" y="32.51" width="2.19" height="2.19" transform="translate(-6.76 1.03) rotate(-11.66)"/>
        <rect class="cls-1" x="1.29" y="35.27" width="2.19" height="2.19" transform="translate(-10.93 2.44) rotate(-17.67)"/>
        <rect class="cls-1" x="2.3" y="37.94" width="2.19" height="2.19" transform="translate(-15.41 4.66) rotate(-23.71)"/>
        <rect class="cls-1" x="3.59" y="40.51" width="2.19" height="2.19" transform="translate(-20.06 7.83) rotate(-29.81)"/>
        <rect class="cls-1" x="5.16" y="42.94" width="2.19" height="2.19" transform="translate(-24.68 12.08) rotate(-35.98)"/>
        <rect class="cls-1" x="7.01" y="45.21" width="2.19" height="2.19" transform="translate(-29.02 17.46) rotate(-42.23)"/>
        <rect class="cls-1" x="9.12" y="47.29" width="2.19" height="2.19" transform="translate(-32.81 24.01) rotate(-48.55)"/>
        <rect class="cls-1" x="11.5" y="49.17" width="2.19" height="2.19" transform="translate(-35.77 31.68) rotate(-54.92)"/>
        <rect class="cls-1" x="14.07" y="50.77" width="2.19" height="2.19" transform="translate(-37.6 40.23) rotate(-61.26)"/>
        <rect class="cls-1" x="16.75" y="52.05" width="2.19" height="2.19" transform="translate(-38.09 49.36) rotate(-67.57)"/>
        <rect class="cls-1" x="19.51" y="53.02" width="2.19" height="2.19" transform="translate(-37.11 58.81) rotate(-73.81)"/>
        <rect class="cls-1" x="22.32" y="53.67" width="2.19" height="2.19" transform="translate(-34.59 68.29) rotate(-79.98)"/>
        <rect class="cls-1" x="25.16" y="54.02" width="2.19" height="2.19" transform="translate(-30.53 77.53) rotate(-86.07)"/>
        <rect class="cls-1" x="28.01" y="54.07" width="2.19" height="2.19" transform="translate(-2 1.1) rotate(-2.1)"/>
        <rect class="cls-1" x="30.84" y="53.81" width="2.19" height="2.19" transform="translate(-7.41 5.04) rotate(-8.09)"/>
        <rect class="cls-1" x="33.63" y="53.27" width="2.19" height="2.19" transform="translate(-12.17 10.07) rotate(-14.07)"/>
        <rect class="cls-1" x="36.34" y="52.44" width="2.19" height="2.19" transform="translate(-16.09 16.09) rotate(-20.06)"/>
        <rect class="cls-1" x="38.96" y="51.32" width="2.19" height="2.19" transform="translate(-18.97 22.97) rotate(-26.1)"/>
        <rect class="cls-1" x="41.47" y="49.92" width="2.19" height="2.19" transform="translate(-20.64 30.53) rotate(-32.2)"/>
        <rect class="cls-1" x="43.83" y="48.25" width="2.19" height="2.19" transform="translate(-20.93 38.55) rotate(-38.38)"/>
        <rect class="cls-1" x="46.02" y="46.31" width="2.19" height="2.19" transform="translate(-19.72 46.77) rotate(-44.63)"/>
        <rect class="cls-1" x="48.02" y="44.11" width="2.19" height="2.19" transform="translate(-16.93 54.86) rotate(-50.94)"/>
        <rect class="cls-1" x="49.8" y="41.65" width="2.19" height="2.19" transform="translate(-12.57 62.46) rotate(-57.29)"/>
        <rect class="cls-1" x="51.28" y="39.03" width="2.19" height="2.19" transform="translate(-6.84 69.22) rotate(-63.62)"/>
        <rect class="cls-1" x="52.45" y="36.32" width="2.19" height="2.19" transform="translate(.01 74.84) rotate(-69.91)"/>
        <rect class="cls-1" x="53.3" y="33.54" width="2.19" height="2.19" transform="translate(7.72 79.13) rotate(-76.12)"/>
        <rect class="cls-1" x="53.84" y="30.71" width="2.19" height="2.19" transform="translate(16.02 81.95) rotate(-82.26)"/>
        <rect class="cls-1" x="54.07" y="27.86" width="2.19" height="2.19" transform="translate(24.61 83.25) rotate(-88.33)"/>
        <rect class="cls-1" x="54" y="25.02" width="2.19" height="2.19" transform="translate(-1.82 4.24) rotate(-4.34)"/>
        <rect class="cls-1" x="53.64" y="22.2" width="2.19" height="2.19" transform="translate(-3.29 10.18) rotate(-10.32)"/>
        <rect class="cls-1" x="52.99" y="19.44" width="2.19" height="2.19" transform="translate(-3.59 16.01) rotate(-16.3)"/>
        <rect class="cls-1" x="52.05" y="16.76" width="2.19" height="2.19" transform="translate(-2.8 21.51) rotate(-22.31)"/>
        <rect class="cls-1" x="50.83" y="14.18" width="2.19" height="2.19" transform="translate(-1.02 26.5) rotate(-28.37)"/>
        <rect class="cls-1" x="49.33" y="11.73" width="2.19" height="2.19" transform="translate(1.61 30.81) rotate(-34.5)"/>
        <rect class="cls-1" x="47.56" y="9.43" width="2.19" height="2.19" transform="translate(4.91 34.27) rotate(-40.7)"/>
        <rect class="cls-1" x="45.52" y="7.3" width="2.19" height="2.19" transform="translate(8.67 36.74) rotate(-46.98)"/>
        <rect class="cls-1" x="43.21" y="5.38" width="2.19" height="2.19" transform="translate(12.64 38.13) rotate(-53.31)"/>
        <rect class="cls-1" x="40.68" y="3.7" width="2.19" height="2.19" transform="translate(16.53 38.42) rotate(-59.66)"/>
        <rect class="cls-1" x="38.02" y="2.34" width="2.19" height="2.19" transform="translate(20.06 37.76) rotate(-65.98)"/>
        <rect class="cls-1" x="35.28" y="1.29" width="2.19" height="2.19" transform="translate(23.01 36.3) rotate(-72.24)"/>
        <rect class="cls-1" x="32.48" y=".56" width="2.19" height="2.19" transform="translate(25.22 34.21) rotate(-78.42)"/>
        <rect class="cls-1" x="29.65" y=".13" width="2.19" height="2.19" transform="translate(26.59 31.71) rotate(-84.53)"/>
        <rect class="cls-1" x="26.8" y=".01" width="2.19" height="2.19" transform="translate(0 .28) rotate(-.57)"/>
        <rect class="cls-1" x="23.96" y=".19" width="2.19" height="2.19" transform="translate(.02 2.88) rotate(-6.57)"/>
        <rect class="cls-1" x="21.16" y=".66" width="2.19" height="2.19" transform="translate(.15 4.88) rotate(-12.55)"/>
        <rect class="cls-1" x="18.43" y="1.42" width="2.19" height="2.19" transform="translate(.21 6.34) rotate(-18.54)"/>
        <rect class="cls-1" x="15.78" y="2.47" width="2.19" height="2.19" transform="translate(.05 7.34) rotate(-24.56)"/>
        <rect class="cls-1" x="13.24" y="3.79" width="2.19" height="2.19" transform="translate(-.49 7.99) rotate(-30.65)"/>
        <rect class="cls-1" x="10.85" y="5.39" width="2.19" height="2.19" transform="translate(-1.51 8.45) rotate(-36.8)"/>
        <rect class="cls-1" x="8.61" y="7.27" width="2.19" height="2.19" transform="translate(-3.09 8.87) rotate(-43.04)"/>
        <rect class="cls-1" x="6.56" y="9.4" width="2.19" height="2.19" transform="translate(-5.3 9.46) rotate(-49.34)"/>
        <rect class="cls-1" x="4.72" y="11.8" width="2.19" height="2.19" transform="translate(-8.12 10.42) rotate(-55.68)"/>
      </g>
      <g>
        <rect class="cls-3" x="26.96" y="24.86" width="2.19" height="2.19"/>
        <rect class="cls-3" x="24.77" y="27.05" width="2.19" height="2.19"/>
        <rect class="cls-3" x="29.15" y="27.05" width="2.19" height="2.19"/>
        <rect class="cls-3" x="26.96" y="29.23" width="2.19" height="2.19"/>
        <rect class="cls-3" x="22.58" y="24.86" width="2.19" height="2.19"/>
        <rect class="cls-3" x="20.4" y="24.86" width="2.19" height="2.19"/>
        <rect class="cls-3" x="18.21" y="24.86" width="2.19" height="2.19"/>
        <rect class="cls-3" x="35.71" y="24.86" width="2.19" height="2.19"/>
        <rect class="cls-3" x="33.52" y="24.86" width="2.19" height="2.19"/>
        <rect class="cls-3" x="31.33" y="24.86" width="2.19" height="2.19"/>
        <rect class="cls-3" x="22.58" y="29.23" width="2.19" height="2.19"/>
        <rect class="cls-3" x="20.4" y="29.23" width="2.19" height="2.19"/>
        <rect class="cls-3" x="18.21" y="29.23" width="2.19" height="2.19"/>
        <rect class="cls-3" x="35.71" y="29.23" width="2.19" height="2.19"/>
        <rect class="cls-3" x="33.52" y="29.23" width="2.19" height="2.19"/>
        <rect class="cls-3" x="31.33" y="29.23" width="2.19" height="2.19"/>
        <rect class="cls-3" x="37.9" y="27.05" width="2.19" height="2.19"/>
        <rect class="cls-3" x="16.02" y="27.05" width="2.19" height="2.19"/>
        <rect class="cls-3" x="24.77" y="18.3" width="2.19" height="2.19"/>
        <rect class="cls-3" x="24.77" y="20.48" width="2.19" height="2.19"/>
        <rect class="cls-3" x="24.77" y="22.67" width="2.19" height="2.19"/>
        <rect class="cls-3" x="29.15" y="18.3" width="2.19" height="2.19"/>
        <rect class="cls-3" x="29.15" y="20.48" width="2.19" height="2.19"/>
        <rect class="cls-3" x="29.15" y="22.67" width="2.19" height="2.19"/>
        <rect class="cls-3" x="26.96" y="16.11" width="2.19" height="2.19"/>
        <rect class="cls-3" x="24.77" y="35.8" width="2.19" height="2.19"/>
        <rect class="cls-3" x="24.77" y="33.61" width="2.19" height="2.19"/>
        <rect class="cls-3" x="24.77" y="31.42" width="2.19" height="2.19"/>
        <rect class="cls-3" x="29.15" y="35.8" width="2.19" height="2.19"/>
        <rect class="cls-3" x="29.15" y="33.61" width="2.19" height="2.19"/>
        <rect class="cls-3" x="29.15" y="31.42" width="2.19" height="2.19"/>
        <rect class="cls-3" x="26.96" y="37.98" width="2.19" height="2.19"/>
        <rect x="29.15" y="9.19" width="2.19" height="2.19"/>
        <rect x="26.96" y="9.19" width="2.19" height="2.19"/>
        <rect x="24.77" y="9.19" width="2.19" height="2.19"/>
        <rect x="31.33" y="9.19" width="2.19" height="2.19"/>
        <rect x="22.58" y="9.19" width="2.19" height="2.19"/>
        <rect x="20.4" y="11.38" width="2.19" height="2.19"/>
        <rect x="18.21" y="13.56" width="2.19" height="2.19"/>
        <rect x="16.02" y="15.75" width="2.19" height="2.19"/>
        <rect x="13.83" y="17.94" width="2.19" height="2.19"/>
        <rect x="11.65" y="20.13" width="2.19" height="2.19"/>
        <rect x="9.46" y="22.31" width="2.19" height="2.19"/>
        <rect x="29.23" y="44.91" width="2.19" height="2.19"/>
        <rect x="27.04" y="44.91" width="2.19" height="2.19"/>
        <rect x="24.86" y="44.91" width="2.19" height="2.19"/>
        <rect x="31.42" y="44.91" width="2.19" height="2.19"/>
        <rect x="22.67" y="44.91" width="2.19" height="2.19"/>
        <rect x="9.54" y="31.78" width="2.19" height="2.19"/>
        <rect x="11.73" y="33.97" width="2.19" height="2.19"/>
        <rect x="13.92" y="36.16" width="2.19" height="2.19"/>
        <rect x="16.11" y="38.34" width="2.19" height="2.19"/>
        <rect x="18.29" y="40.53" width="2.19" height="2.19"/>
        <rect x="20.48" y="42.72" width="2.19" height="2.19"/>
        <rect x="7.36" y="29.59" width="2.19" height="2.19"/>
        <rect x="7.27" y="24.5" width="2.19" height="2.19"/>
        <rect x="4.63" y="26.69" width="2.64" height="2.64"/>
        <rect x="33.69" y="11.38" width="2.19" height="2.19"/>
        <rect x="35.88" y="13.56" width="2.19" height="2.19"/>
        <rect x="38.07" y="15.75" width="2.19" height="2.19"/>
        <rect x="40.25" y="17.94" width="2.19" height="2.19"/>
        <rect x="42.44" y="20.13" width="2.19" height="2.19"/>
        <rect x="44.63" y="22.31" width="2.19" height="2.19"/>
        <rect x="44.54" y="31.78" width="2.19" height="2.19"/>
        <rect x="42.36" y="33.97" width="2.19" height="2.19"/>
        <rect x="40.17" y="36.16" width="2.19" height="2.19"/>
        <rect x="37.98" y="38.34" width="2.19" height="2.19"/>
        <rect x="35.79" y="40.53" width="2.19" height="2.19"/>
        <rect x="33.61" y="42.72" width="2.19" height="2.19"/>
        <rect x="46.73" y="29.59" width="2.19" height="2.19"/>
        <rect x="46.82" y="24.5" width="2.19" height="2.19"/>
        <rect x="49" y="26.69" width="2.64" height="2.64"/>
      </g>
    </g>
  </g>
</svg>