<?xml version="1.0" encoding="UTF-8"?>
<svg id="Layer_2" data-name="Layer 2" xmlns="http://www.w3.org/2000/svg" viewBox="0 0 25.39 73.78">
  <defs>
    <style>
      .cls-1 {
        fill: #8a1a2b;
      }

      .cls-2 {
        fill: #b97a49;
      }
    </style>
  </defs>
  <g id="Layer_1-2" data-name="Layer 1">
    <g>
      <g>
        <g>
          <g>
            <g>
              <rect class="cls-2" x="10.58" y="44.16" width="2.12" height="2.12"/>
              <rect class="cls-2" x="8.46" y="44.16" width="2.12" height="2.12"/>
            </g>
            <g>
              <rect class="cls-2" x="14.81" y="44.16" width="2.12" height="2.12"/>
              <rect class="cls-2" x="12.69" y="44.16" width="2.12" height="2.12"/>
            </g>
          </g>
          <g>
            <g>
              <g>
                <rect class="cls-2" x="10.58" y="46.28" width="2.12" height="2.12"/>
                <rect class="cls-2" x="8.46" y="46.28" width="2.12" height="2.12"/>
              </g>
              <g>
                <rect class="cls-2" x="14.81" y="46.28" width="2.12" height="2.12"/>
                <rect class="cls-2" x="12.69" y="46.28" width="2.12" height="2.12"/>
              </g>
            </g>
            <rect class="cls-2" x="16.93" y="46.28" width="2.12" height="2.12"/>
            <rect class="cls-2" x="6.35" y="46.28" width="2.12" height="2.12"/>
          </g>
          <g>
            <g>
              <g>
                <g>
                  <rect class="cls-2" x="10.58" y="48.39" width="2.12" height="2.12"/>
                  <rect class="cls-2" x="8.46" y="48.39" width="2.12" height="2.12"/>
                </g>
                <g>
                  <rect class="cls-2" x="14.81" y="48.39" width="2.12" height="2.12"/>
                  <rect class="cls-2" x="12.69" y="48.39" width="2.12" height="2.12"/>
                </g>
              </g>
              <rect class="cls-2" x="16.93" y="48.39" width="2.12" height="2.12"/>
              <rect class="cls-2" x="6.35" y="48.39" width="2.12" height="2.12"/>
            </g>
            <rect class="cls-2" x="4.23" y="48.39" width="2.12" height="2.12"/>
            <rect class="cls-2" x="19.04" y="48.39" width="2.12" height="2.12"/>
          </g>
          <g>
            <g>
              <g>
                <g>
                  <rect class="cls-2" x="10.58" y="58.97" width="2.12" height="2.12"/>
                  <rect class="cls-2" x="8.46" y="58.97" width="2.12" height="2.12"/>
                </g>
                <g>
                  <rect class="cls-2" x="14.81" y="58.97" width="2.12" height="2.12"/>
                  <rect class="cls-2" x="12.69" y="58.97" width="2.12" height="2.12"/>
                </g>
              </g>
              <rect class="cls-2" x="16.93" y="58.97" width="2.12" height="2.12"/>
              <rect class="cls-2" x="6.35" y="58.97" width="2.12" height="2.12"/>
            </g>
            <rect class="cls-2" x="4.23" y="58.97" width="2.12" height="2.12"/>
            <rect class="cls-2" x="19.04" y="58.97" width="2.12" height="2.12"/>
          </g>
          <g>
            <g>
              <g>
                <rect class="cls-2" x="10.58" y="61.09" width="2.12" height="2.12"/>
                <rect class="cls-2" x="8.46" y="61.09" width="2.12" height="2.12"/>
              </g>
              <g>
                <rect class="cls-2" x="14.81" y="61.09" width="2.12" height="2.12"/>
                <rect class="cls-2" x="12.69" y="61.09" width="2.12" height="2.12"/>
              </g>
            </g>
            <rect class="cls-2" x="16.93" y="61.09" width="2.12" height="2.12"/>
            <rect class="cls-2" x="6.35" y="61.09" width="2.12" height="2.12"/>
          </g>
          <g>
            <g>
              <rect class="cls-2" x="10.58" y="63.2" width="2.12" height="2.12"/>
              <rect class="cls-2" x="8.46" y="63.2" width="2.12" height="2.12"/>
            </g>
            <g>
              <rect class="cls-2" x="14.81" y="63.2" width="2.12" height="2.12"/>
              <rect class="cls-2" x="12.69" y="63.2" width="2.12" height="2.12"/>
            </g>
          </g>
          <g>
            <g>
              <g>
                <g>
                  <g>
                    <rect class="cls-2" x="10.58" y="50.51" width="2.12" height="2.12"/>
                    <rect class="cls-2" x="8.46" y="50.51" width="2.12" height="2.12"/>
                  </g>
                  <g>
                    <rect class="cls-2" x="14.81" y="50.51" width="2.12" height="2.12"/>
                    <rect class="cls-2" x="12.69" y="50.51" width="2.12" height="2.12"/>
                  </g>
                </g>
                <rect class="cls-2" x="16.93" y="50.51" width="2.12" height="2.12"/>
                <rect class="cls-2" x="6.35" y="50.51" width="2.12" height="2.12"/>
              </g>
              <rect class="cls-2" x="4.23" y="50.51" width="2.12" height="2.12"/>
              <rect class="cls-2" x="19.04" y="50.51" width="2.12" height="2.12"/>
            </g>
            <rect class="cls-2" x="21.16" y="50.51" width="2.12" height="2.12"/>
            <rect class="cls-2" x="2.12" y="50.51" width="2.12" height="2.12"/>
          </g>
          <g>
            <rect class="cls-2" x="0" y="52.62" width="2.12" height="2.12"/>
            <rect class="cls-2" x="23.27" y="52.62" width="2.12" height="2.12"/>
            <g>
              <g>
                <g>
                  <g>
                    <g>
                      <rect class="cls-2" x="10.58" y="52.62" width="2.12" height="2.12"/>
                      <rect class="cls-2" x="8.46" y="52.62" width="2.12" height="2.12"/>
                    </g>
                    <g>
                      <rect class="cls-2" x="14.81" y="52.62" width="2.12" height="2.12"/>
                      <rect class="cls-2" x="12.69" y="52.62" width="2.12" height="2.12"/>
                    </g>
                  </g>
                  <rect class="cls-2" x="16.93" y="52.62" width="2.12" height="2.12"/>
                  <rect class="cls-2" x="6.35" y="52.62" width="2.12" height="2.12"/>
                </g>
                <rect class="cls-2" x="4.23" y="52.62" width="2.12" height="2.12"/>
                <rect class="cls-2" x="19.04" y="52.62" width="2.12" height="2.12"/>
              </g>
              <rect class="cls-2" x="21.16" y="52.62" width="2.12" height="2.12"/>
              <rect class="cls-2" x="2.12" y="52.62" width="2.12" height="2.12"/>
            </g>
          </g>
          <g>
            <rect class="cls-2" x="0" y="54.74" width="2.12" height="2.12"/>
            <rect class="cls-2" x="23.27" y="54.74" width="2.12" height="2.12"/>
            <g>
              <g>
                <g>
                  <g>
                    <g>
                      <rect class="cls-2" x="10.58" y="54.74" width="2.12" height="2.12"/>
                      <rect class="cls-2" x="8.46" y="54.74" width="2.12" height="2.12"/>
                    </g>
                    <g>
                      <rect class="cls-2" x="14.81" y="54.74" width="2.12" height="2.12"/>
                      <rect class="cls-2" x="12.69" y="54.74" width="2.12" height="2.12"/>
                    </g>
                  </g>
                  <rect class="cls-2" x="16.93" y="54.74" width="2.12" height="2.12"/>
                  <rect class="cls-2" x="6.35" y="54.74" width="2.12" height="2.12"/>
                </g>
                <rect class="cls-2" x="4.23" y="54.74" width="2.12" height="2.12"/>
                <rect class="cls-2" x="19.04" y="54.74" width="2.12" height="2.12"/>
              </g>
              <rect class="cls-2" x="21.16" y="54.74" width="2.12" height="2.12"/>
              <rect class="cls-2" x="2.12" y="54.74" width="2.12" height="2.12"/>
            </g>
          </g>
          <g>
            <g>
              <g>
                <g>
                  <g>
                    <rect class="cls-2" x="10.58" y="56.86" width="2.12" height="2.12"/>
                    <rect class="cls-2" x="8.46" y="56.86" width="2.12" height="2.12"/>
                  </g>
                  <g>
                    <rect class="cls-2" x="14.81" y="56.86" width="2.12" height="2.12"/>
                    <rect class="cls-2" x="12.69" y="56.86" width="2.12" height="2.12"/>
                  </g>
                </g>
                <rect class="cls-2" x="16.93" y="56.86" width="2.12" height="2.12"/>
                <rect class="cls-2" x="6.35" y="56.86" width="2.12" height="2.12"/>
              </g>
              <rect class="cls-2" x="4.23" y="56.86" width="2.12" height="2.12"/>
              <rect class="cls-2" x="19.04" y="56.86" width="2.12" height="2.12"/>
            </g>
            <rect class="cls-2" x="21.16" y="56.86" width="2.12" height="2.12"/>
            <rect class="cls-2" x="2.12" y="56.86" width="2.12" height="2.12"/>
          </g>
        </g>
        <g>
          <g>
            <g>
              <g>
                <g>
                  <rect class="cls-2" x="10.58" y="37.86" width="2.12" height="2.12"/>
                  <rect class="cls-2" x="8.46" y="37.86" width="2.12" height="2.12"/>
                </g>
                <g>
                  <rect class="cls-2" x="14.81" y="37.86" width="2.12" height="2.12"/>
                  <rect class="cls-2" x="12.69" y="37.86" width="2.12" height="2.12"/>
                </g>
              </g>
              <rect class="cls-2" x="16.93" y="37.86" width="2.12" height="2.12"/>
              <rect class="cls-2" x="6.35" y="37.86" width="2.12" height="2.12"/>
            </g>
            <rect class="cls-2" x="4.23" y="37.86" width="2.12" height="2.12"/>
            <rect class="cls-2" x="19.04" y="37.86" width="2.12" height="2.12"/>
          </g>
          <g>
            <g>
              <g>
                <rect class="cls-2" x="10.58" y="39.95" width="2.12" height="2.12"/>
                <rect class="cls-2" x="8.46" y="39.95" width="2.12" height="2.12"/>
              </g>
              <g>
                <rect class="cls-2" x="14.81" y="39.95" width="2.12" height="2.12"/>
                <rect class="cls-2" x="12.69" y="39.95" width="2.12" height="2.12"/>
              </g>
            </g>
            <rect class="cls-2" x="16.93" y="39.95" width="2.12" height="2.12"/>
            <rect class="cls-2" x="6.35" y="39.95" width="2.12" height="2.12"/>
          </g>
          <g>
            <g>
              <rect class="cls-2" x="10.58" y="42.07" width="2.12" height="2.12"/>
              <rect class="cls-2" x="8.46" y="42.07" width="2.12" height="2.12"/>
            </g>
            <g>
              <rect class="cls-2" x="14.81" y="42.07" width="2.12" height="2.12"/>
              <rect class="cls-2" x="12.69" y="42.07" width="2.12" height="2.12"/>
            </g>
          </g>
          <g>
            <g>
              <g>
                <g>
                  <rect class="cls-2" x="10.58" y="35.75" width="2.12" height="2.12"/>
                  <rect class="cls-2" x="8.46" y="35.75" width="2.12" height="2.12"/>
                </g>
                <g>
                  <rect class="cls-2" x="14.81" y="35.75" width="2.12" height="2.12"/>
                  <rect class="cls-2" x="12.69" y="35.75" width="2.12" height="2.12"/>
                </g>
              </g>
              <rect class="cls-2" x="16.93" y="35.75" width="2.12" height="2.12"/>
              <rect class="cls-2" x="6.35" y="35.75" width="2.12" height="2.12"/>
            </g>
            <rect class="cls-2" x="4.23" y="35.75" width="2.12" height="2.12"/>
            <rect class="cls-2" x="19.04" y="35.75" width="2.12" height="2.12"/>
          </g>
        </g>
        <g>
          <g>
            <g>
              <rect class="cls-2" x="10.58" y="67.43" width="2.12" height="2.12"/>
              <rect class="cls-2" x="8.46" y="67.43" width="2.12" height="2.12"/>
            </g>
            <g>
              <rect class="cls-2" x="14.81" y="67.43" width="2.12" height="2.12"/>
              <rect class="cls-2" x="12.69" y="67.43" width="2.12" height="2.12"/>
            </g>
          </g>
          <rect class="cls-2" x="16.93" y="67.43" width="2.12" height="2.12"/>
          <rect class="cls-2" x="6.35" y="67.43" width="2.12" height="2.12"/>
        </g>
        <g>
          <g>
            <rect class="cls-2" x="10.58" y="65.32" width="2.12" height="2.12"/>
            <rect class="cls-2" x="8.46" y="65.32" width="2.12" height="2.12"/>
          </g>
          <g>
            <rect class="cls-2" x="14.81" y="65.32" width="2.12" height="2.12"/>
            <rect class="cls-2" x="12.69" y="65.32" width="2.12" height="2.12"/>
          </g>
        </g>
        <g>
          <g>
            <g>
              <g>
                <rect class="cls-2" x="10.58" y="69.55" width="2.12" height="2.12"/>
                <rect class="cls-2" x="8.46" y="69.55" width="2.12" height="2.12"/>
              </g>
              <g>
                <rect class="cls-2" x="14.81" y="69.55" width="2.12" height="2.12"/>
                <rect class="cls-2" x="12.69" y="69.55" width="2.12" height="2.12"/>
              </g>
            </g>
            <rect class="cls-2" x="16.93" y="69.55" width="2.12" height="2.12"/>
            <rect class="cls-2" x="6.35" y="69.55" width="2.12" height="2.12"/>
          </g>
          <rect class="cls-2" x="4.23" y="69.55" width="2.12" height="2.12"/>
          <rect class="cls-2" x="19.04" y="69.55" width="2.12" height="2.12"/>
        </g>
        <g>
          <rect class="cls-2" x="6.37" y="71.67" width="2.12" height="2.12"/>
          <rect class="cls-2" x="4.25" y="71.67" width="2.12" height="2.12"/>
        </g>
        <g>
          <rect class="cls-2" x="19.04" y="71.67" width="2.12" height="2.12"/>
          <rect class="cls-2" x="16.93" y="71.67" width="2.12" height="2.12"/>
        </g>
      </g>
      <g>
        <rect class="cls-1" x="12.09" y="34.53" width="1.22" height="1.22"/>
        <rect class="cls-1" x="12.09" y="33.31" width="1.22" height="1.22"/>
        <rect class="cls-1" x="12.09" y="32.09" width="1.22" height="1.22"/>
        <rect class="cls-1" x="12.09" y="30.87" width="1.22" height="1.22"/>
        <rect class="cls-1" x="13.3" y="29.66" width="1.22" height="1.22"/>
        <rect class="cls-1" x="12.09" y="28.44" width="1.22" height="1.22"/>
        <rect class="cls-1" x="12.09" y="27.22" width="1.22" height="1.22"/>
        <rect class="cls-1" x="12.09" y="26.01" width="1.22" height="1.22"/>
        <rect class="cls-1" x="12.09" y="24.79" width="1.22" height="1.22"/>
        <rect class="cls-1" x="12.09" y="23.57" width="1.22" height="1.22"/>
        <rect class="cls-1" x="12.09" y="22.35" width="1.22" height="1.22"/>
        <rect class="cls-1" x="12.09" y="21.13" width="1.22" height="1.22"/>
        <rect class="cls-1" x="10.87" y="29.66" width="1.22" height="1.22"/>
        <rect class="cls-1" x="9.65" y="28.44" width="1.22" height="1.22"/>
        <rect class="cls-1" x="14.52" y="28.44" width="1.22" height="1.22"/>
        <rect class="cls-1" x="15.74" y="27.22" width="1.22" height="1.22"/>
        <rect class="cls-1" x="8.43" y="27.22" width="1.22" height="1.22"/>
      </g>
      <g>
        <g>
          <g>
            <g>
              <polygon class="cls-1" points="12.69 4.23 12.69 4.23 14.81 4.23 14.81 4.23 16.93 4.23 16.93 2.12 14.81 2.12 13.75 2.12 13.75 0 11.64 0 11.64 2.12 10.58 2.12 8.46 2.12 8.46 4.23 10.58 4.23 10.58 4.23 12.69 4.23"/>
              <path class="cls-1" d="M19.04,6.35v-2.12H6.35v2.12h-2.12v2.12H21.16v-2.12h-2.12Zm-7.41,2.12v-2.12h2.12v2.12h-2.12Z"/>
            </g>
            <g>
              <g>
                <g>
                  <g>
                    <rect class="cls-1" x="8.46" y="8.46" width="2.12" height="2.12"/>
                    <rect class="cls-1" x="14.81" y="8.46" width="2.12" height="2.12"/>
                  </g>
                  <rect class="cls-1" x="16.93" y="8.46" width="2.12" height="2.12"/>
                  <rect class="cls-1" x="6.35" y="8.46" width="2.12" height="2.12"/>
                </g>
                <rect class="cls-1" x="4.23" y="8.46" width="2.12" height="2.12"/>
                <rect class="cls-1" x="19.04" y="8.46" width="2.12" height="2.12"/>
              </g>
              <rect class="cls-1" x="21.16" y="8.46" width="2.12" height="2.12"/>
              <rect class="cls-1" x="2.12" y="8.46" width="2.12" height="2.12"/>
            </g>
          </g>
          <g>
            <g>
              <g>
                <g>
                  <rect class="cls-1" x="8.46" y="10.58" width="2.12" height="2.12"/>
                  <rect class="cls-1" x="14.81" y="10.58" width="2.12" height="2.12"/>
                </g>
                <rect class="cls-1" x="16.93" y="10.58" width="2.12" height="2.12"/>
                <rect class="cls-1" x="6.35" y="10.58" width="2.12" height="2.12"/>
              </g>
              <rect class="cls-1" x="4.23" y="10.58" width="2.12" height="2.12"/>
              <rect class="cls-1" x="19.04" y="10.58" width="2.12" height="2.12"/>
            </g>
            <rect class="cls-1" x="21.16" y="10.58" width="2.12" height="2.12"/>
            <rect class="cls-1" x="2.12" y="10.58" width="2.12" height="2.12"/>
            <rect class="cls-1" x="23.27" y="10.58" width="2.12" height="2.12"/>
            <rect class="cls-1" x="0" y="10.58" width="2.12" height="2.12"/>
          </g>
        </g>
        <g>
          <rect class="cls-1" x="21.16" y="12.69" width="2.12" height="2.12"/>
          <rect class="cls-1" x="2.12" y="12.69" width="2.12" height="2.12"/>
          <polygon class="cls-1" points="10.58 12.69 8.46 12.69 6.35 12.69 4.23 12.69 4.23 14.81 4.23 14.81 4.23 16.93 4.23 19.04 6.35 19.04 6.35 21.16 8.46 21.16 8.46 19.04 8.46 19.04 8.46 16.93 8.46 16.93 8.46 14.81 8.46 16.93 8.46 19.04 8.46 21.16 8.46 21.16 8.46 23.27 10.58 23.27 10.58 21.16 10.58 21.16 10.58 19.04 10.58 16.93 10.58 14.81 10.58 14.81 10.58 12.69"/>
          <polygon class="cls-1" points="21.16 12.69 19.04 12.69 16.93 12.69 14.81 12.69 14.81 14.81 14.81 16.93 14.81 19.04 14.81 21.16 14.81 21.16 14.81 23.27 16.93 23.27 16.93 21.16 19.04 21.16 19.04 19.04 21.16 19.04 21.16 16.93 21.16 16.93 21.16 14.81 21.16 14.81 21.16 12.69"/>
          <polygon class="cls-1" points="14.81 16.93 14.81 14.81 14.81 12.69 13.75 12.69 13.75 14.81 12.69 14.81 11.64 14.81 11.64 12.69 10.58 12.69 10.58 14.81 10.58 16.93 10.58 19.04 10.58 21.16 12.69 21.16 14.81 21.16 14.81 19.04 14.81 16.93"/>
        </g>
      </g>
    </g>
  </g>
</svg>