<?xml version="1.0" encoding="UTF-8"?>
<svg id="Layer_2" data-name="Layer 2" xmlns="http://www.w3.org/2000/svg" viewBox="0 0 25.47 40.74">
  <defs>
    <style>
      .cls-1 {
        fill: #438c5c;
      }

      .cls-2 {
        fill: #3181c4;
      }

      .cls-3 {
        fill: #8c5a51;
      }
    </style>
  </defs>
  <g id="Layer_1-2" data-name="Layer 1">
    <g>
      <g>
        <rect class="cls-1" x="14.76" y="37.72" width="1.4" height="1.4"/>
        <rect class="cls-1" x="16.16" y="36.31" width="1.4" height="1.4"/>
        <rect class="cls-1" x="17.57" y="34.91" width="1.4" height="1.4"/>
        <rect class="cls-1" x="18.97" y="33.5" width="1.4" height="1.4"/>
        <g>
          <polyline class="cls-1" points="25.47 33.5 20.37 28.7 20.37 33.5"/>
          <g>
            <rect class="cls-1" x="24.22" y="32.54" width=".96" height=".96"/>
            <rect class="cls-1" x="23.26" y="31.58" width=".96" height=".96"/>
            <rect class="cls-1" x="22.3" y="30.62" width=".96" height=".96"/>
            <rect class="cls-1" x="21.33" y="29.66" width=".96" height=".96"/>
            <rect class="cls-1" x="20.37" y="28.7" width=".96" height=".96"/>
          </g>
        </g>
        <rect class="cls-2" x="23.26" y="29.22" width="1.4" height="1.4"/>
        <g>
          <g>
            <rect class="cls-1" x="17.57" y="37.72" width="1.4" height="1.4"/>
            <rect class="cls-1" x="18.97" y="37.72" width="1.4" height="1.4"/>
          </g>
          <g>
            <rect class="cls-1" x="18.97" y="36.31" width="1.4" height="1.4"/>
            <rect class="cls-1" x="20.37" y="36.31" width="1.4" height="1.4"/>
          </g>
          <g>
            <rect class="cls-1" x="20.37" y="34.91" width="1.4" height="1.4"/>
            <rect class="cls-1" x="21.78" y="34.91" width="1.4" height="1.4"/>
          </g>
        </g>
        <g>
          <g>
            <rect class="cls-1" x="14.76" y="33.5" width="1.4" height="1.4"/>
            <rect class="cls-1" x="14.76" y="34.91" width="1.4" height="1.4"/>
          </g>
          <g>
            <rect class="cls-1" x="16.16" y="32.1" width="1.4" height="1.4"/>
            <rect class="cls-1" x="16.16" y="33.5" width="1.4" height="1.4"/>
          </g>
          <g>
            <rect class="cls-1" x="17.57" y="30.69" width="1.4" height="1.4"/>
            <rect class="cls-1" x="17.57" y="32.1" width="1.4" height="1.4"/>
          </g>
        </g>
      </g>
      <g>
        <rect class="cls-3" x="10.71" y="39.93" width=".81" height=".81"/>
        <rect class="cls-3" x="11.52" y="39.93" width=".81" height=".81"/>
        <rect class="cls-3" x="12.33" y="39.93" width=".81" height=".81"/>
        <rect class="cls-3" x="10.71" y="39.12" width=".81" height=".81"/>
        <rect class="cls-3" x="11.52" y="39.12" width=".81" height=".81"/>
        <rect class="cls-3" x="12.33" y="39.12" width=".81" height=".81"/>
        <rect class="cls-3" x="13.14" y="39.93" width=".81" height=".81"/>
        <rect class="cls-3" x="13.95" y="39.93" width=".81" height=".81"/>
        <rect class="cls-3" x="13.14" y="39.12" width=".81" height=".81"/>
        <rect class="cls-3" x="13.95" y="39.12" width=".81" height=".81"/>
      </g>
      <g>
        <rect class="cls-3" x="11.93" y="38.31" width=".81" height=".81"/>
        <rect class="cls-3" x="12.73" y="38.31" width=".81" height=".81"/>
        <rect class="cls-3" x="11.93" y="37.5" width=".81" height=".81"/>
        <rect class="cls-3" x="12.73" y="37.5" width=".81" height=".81"/>
        <rect class="cls-3" x="11.93" y="36.7" width=".81" height=".81"/>
        <rect class="cls-3" x="12.73" y="36.7" width=".81" height=".81"/>
        <rect class="cls-3" x="11.93" y="35.89" width=".81" height=".81"/>
        <rect class="cls-3" x="12.73" y="35.89" width=".81" height=".81"/>
        <rect class="cls-3" x="11.93" y="35.08" width=".81" height=".81"/>
        <rect class="cls-3" x="12.73" y="35.08" width=".81" height=".81"/>
        <rect class="cls-3" x="11.93" y="34.27" width=".81" height=".81"/>
        <rect class="cls-3" x="12.73" y="34.27" width=".81" height=".81"/>
        <rect class="cls-3" x="11.93" y="33.46" width=".81" height=".81"/>
        <rect class="cls-3" x="12.73" y="33.46" width=".81" height=".81"/>
        <rect class="cls-3" x="11.93" y="32.66" width=".81" height=".81"/>
        <rect class="cls-3" x="12.73" y="32.66" width=".81" height=".81"/>
        <rect class="cls-3" x="11.93" y="31.85" width=".81" height=".81"/>
        <rect class="cls-3" x="12.73" y="31.85" width=".81" height=".81"/>
        <rect class="cls-3" x="11.93" y="31.04" width=".81" height=".81"/>
        <rect class="cls-3" x="12.73" y="31.04" width=".81" height=".81"/>
        <rect class="cls-3" x="11.93" y="30.23" width=".81" height=".81"/>
        <rect class="cls-3" x="12.73" y="30.23" width=".81" height=".81"/>
        <rect class="cls-3" x="11.93" y="29.42" width=".81" height=".81"/>
        <rect class="cls-3" x="12.73" y="29.42" width=".81" height=".81"/>
        <rect class="cls-3" x="11.93" y="28.61" width=".81" height=".81"/>
        <rect class="cls-3" x="12.73" y="28.61" width=".81" height=".81"/>
        <rect class="cls-3" x="11.93" y="27.81" width=".81" height=".81"/>
        <rect class="cls-3" x="12.73" y="27.81" width=".81" height=".81"/>
        <rect class="cls-3" x="11.93" y="27" width=".81" height=".81"/>
        <rect class="cls-3" x="12.73" y="27" width=".81" height=".81"/>
        <rect class="cls-3" x="11.93" y="26.19" width=".81" height=".81"/>
        <rect class="cls-3" x="12.73" y="26.19" width=".81" height=".81"/>
      </g>
      <g>
        <rect class="cls-3" x="10.71" y="25.38" width=".81" height=".81"/>
        <rect class="cls-3" x="11.52" y="25.38" width=".81" height=".81"/>
        <rect class="cls-3" x="12.33" y="25.38" width=".81" height=".81"/>
        <rect class="cls-3" x="10.71" y="24.57" width=".81" height=".81"/>
        <rect class="cls-3" x="11.52" y="24.57" width=".81" height=".81"/>
        <rect class="cls-3" x="12.33" y="24.57" width=".81" height=".81"/>
        <rect class="cls-3" x="13.14" y="25.38" width=".81" height=".81"/>
        <rect class="cls-3" x="13.95" y="25.38" width=".81" height=".81"/>
        <rect class="cls-3" x="13.14" y="24.57" width=".81" height=".81"/>
        <rect class="cls-3" x="13.95" y="24.57" width=".81" height=".81"/>
      </g>
      <g>
        <rect class="cls-3" x="11.93" y="23.76" width=".81" height=".81"/>
        <rect class="cls-3" x="12.73" y="23.76" width=".81" height=".81"/>
        <rect class="cls-3" x="11.93" y="22.95" width=".81" height=".81"/>
        <rect class="cls-3" x="12.73" y="22.95" width=".81" height=".81"/>
        <rect class="cls-3" x="11.93" y="22.15" width=".81" height=".81"/>
        <rect class="cls-3" x="12.73" y="22.15" width=".81" height=".81"/>
        <rect class="cls-3" x="11.93" y="21.34" width=".81" height=".81"/>
        <rect class="cls-3" x="12.73" y="21.34" width=".81" height=".81"/>
        <rect class="cls-3" x="11.93" y="20.53" width=".81" height=".81"/>
        <rect class="cls-3" x="12.73" y="20.53" width=".81" height=".81"/>
        <rect class="cls-3" x="11.93" y="19.72" width=".81" height=".81"/>
        <rect class="cls-3" x="12.73" y="19.72" width=".81" height=".81"/>
        <rect class="cls-3" x="11.93" y="18.91" width=".81" height=".81"/>
        <rect class="cls-3" x="12.73" y="18.91" width=".81" height=".81"/>
        <rect class="cls-3" x="11.93" y="18.1" width=".81" height=".81"/>
        <rect class="cls-3" x="12.73" y="18.1" width=".81" height=".81"/>
        <rect class="cls-3" x="11.93" y="17.3" width=".81" height=".81"/>
        <rect class="cls-3" x="12.73" y="17.3" width=".81" height=".81"/>
        <rect class="cls-3" x="11.93" y="16.49" width=".81" height=".81"/>
        <rect class="cls-3" x="12.73" y="16.49" width=".81" height=".81"/>
        <rect class="cls-3" x="11.93" y="15.68" width=".81" height=".81"/>
        <rect class="cls-3" x="12.73" y="15.68" width=".81" height=".81"/>
        <rect class="cls-3" x="11.93" y="14.87" width=".81" height=".81"/>
        <rect class="cls-3" x="12.73" y="14.87" width=".81" height=".81"/>
        <rect class="cls-3" x="11.93" y="14.06" width=".81" height=".81"/>
        <rect class="cls-3" x="12.73" y="14.06" width=".81" height=".81"/>
        <rect class="cls-3" x="11.93" y="13.26" width=".81" height=".81"/>
        <rect class="cls-3" x="12.73" y="13.26" width=".81" height=".81"/>
        <rect class="cls-3" x="11.93" y="12.45" width=".81" height=".81"/>
        <rect class="cls-3" x="12.73" y="12.45" width=".81" height=".81"/>
        <rect class="cls-3" x="11.93" y="11.64" width=".81" height=".81"/>
        <rect class="cls-3" x="12.73" y="11.64" width=".81" height=".81"/>
      </g>
      <g>
        <rect class="cls-3" x="10.71" y="10.83" width=".81" height=".81"/>
        <rect class="cls-3" x="11.52" y="10.83" width=".81" height=".81"/>
        <rect class="cls-3" x="12.33" y="10.83" width=".81" height=".81"/>
        <rect class="cls-3" x="10.71" y="10.02" width=".81" height=".81"/>
        <rect class="cls-3" x="11.52" y="10.02" width=".81" height=".81"/>
        <rect class="cls-3" x="12.33" y="10.02" width=".81" height=".81"/>
        <rect class="cls-3" x="13.14" y="10.83" width=".81" height=".81"/>
        <rect class="cls-3" x="13.95" y="10.83" width=".81" height=".81"/>
        <rect class="cls-3" x="13.14" y="10.02" width=".81" height=".81"/>
        <rect class="cls-3" x="13.95" y="10.02" width=".81" height=".81"/>
      </g>
      <g>
        <rect class="cls-3" x="11.93" y="9.21" width=".81" height=".81"/>
        <rect class="cls-3" x="12.73" y="9.21" width=".81" height=".81"/>
        <rect class="cls-3" x="11.93" y="8.41" width=".81" height=".81"/>
        <rect class="cls-3" x="12.73" y="8.41" width=".81" height=".81"/>
        <rect class="cls-3" x="11.93" y="7.6" width=".81" height=".81"/>
        <rect class="cls-3" x="12.73" y="7.6" width=".81" height=".81"/>
        <rect class="cls-3" x="11.93" y="6.79" width=".81" height=".81"/>
        <rect class="cls-3" x="12.73" y="6.79" width=".81" height=".81"/>
        <rect class="cls-3" x="11.93" y="5.98" width=".81" height=".81"/>
        <rect class="cls-3" x="12.73" y="5.98" width=".81" height=".81"/>
        <rect class="cls-3" x="11.93" y="5.17" width=".81" height=".81"/>
        <rect class="cls-3" x="12.73" y="5.17" width=".81" height=".81"/>
        <rect class="cls-3" x="11.93" y="4.36" width=".81" height=".81"/>
        <rect class="cls-3" x="12.73" y="4.36" width=".81" height=".81"/>
        <rect class="cls-3" x="11.93" y="3.56" width=".81" height=".81"/>
        <rect class="cls-3" x="12.73" y="3.56" width=".81" height=".81"/>
        <rect class="cls-3" x="11.93" y="2.75" width=".81" height=".81"/>
        <rect class="cls-3" x="12.73" y="2.75" width=".81" height=".81"/>
        <rect class="cls-3" x="11.93" y="1.94" width=".81" height=".81"/>
        <rect class="cls-3" x="12.73" y="1.94" width=".81" height=".81"/>
        <rect class="cls-3" x="11.93" y="1.13" width=".81" height=".81"/>
        <rect class="cls-3" x="12.73" y="1.13" width=".81" height=".81"/>
        <rect class="cls-3" x="11.93" y=".32" width=".81" height=".81"/>
        <rect class="cls-3" x="12.73" y=".32" width=".81" height=".81"/>
      </g>
      <g>
        <rect class="cls-1" x="14.76" y="23.17" width="1.4" height="1.4"/>
        <rect class="cls-1" x="16.16" y="21.76" width="1.4" height="1.4"/>
        <rect class="cls-1" x="17.57" y="20.36" width="1.4" height="1.4"/>
        <rect class="cls-1" x="18.97" y="18.95" width="1.4" height="1.4"/>
        <g>
          <polyline class="cls-1" points="25.47 18.95 20.37 14.15 20.37 18.95"/>
          <g>
            <rect class="cls-1" x="24.22" y="17.99" width=".96" height=".96"/>
            <rect class="cls-1" x="23.26" y="17.03" width=".96" height=".96"/>
            <rect class="cls-1" x="22.3" y="16.07" width=".96" height=".96"/>
            <rect class="cls-1" x="21.33" y="15.11" width=".96" height=".96"/>
            <rect class="cls-1" x="20.37" y="14.15" width=".96" height=".96"/>
          </g>
        </g>
        <rect class="cls-2" x="23.26" y="14.66" width="1.4" height="1.4"/>
        <g>
          <g>
            <rect class="cls-1" x="17.57" y="23.17" width="1.4" height="1.4"/>
            <rect class="cls-1" x="18.97" y="23.17" width="1.4" height="1.4"/>
          </g>
          <g>
            <rect class="cls-1" x="18.97" y="21.76" width="1.4" height="1.4"/>
            <rect class="cls-1" x="20.37" y="21.76" width="1.4" height="1.4"/>
          </g>
          <g>
            <rect class="cls-1" x="20.37" y="20.36" width="1.4" height="1.4"/>
            <rect class="cls-1" x="21.78" y="20.36" width="1.4" height="1.4"/>
          </g>
        </g>
        <g>
          <g>
            <rect class="cls-1" x="14.76" y="18.95" width="1.4" height="1.4"/>
            <rect class="cls-1" x="14.76" y="20.36" width="1.4" height="1.4"/>
          </g>
          <g>
            <rect class="cls-1" x="16.16" y="17.55" width="1.4" height="1.4"/>
            <rect class="cls-1" x="16.16" y="18.95" width="1.4" height="1.4"/>
          </g>
          <g>
            <rect class="cls-1" x="17.57" y="16.14" width="1.4" height="1.4"/>
            <rect class="cls-1" x="17.57" y="17.55" width="1.4" height="1.4"/>
          </g>
        </g>
      </g>
      <g>
        <rect class="cls-1" x="14.76" y="9.02" width="1.4" height="1.4"/>
        <rect class="cls-1" x="16.16" y="7.62" width="1.4" height="1.4"/>
        <rect class="cls-1" x="17.57" y="6.21" width="1.4" height="1.4"/>
        <rect class="cls-1" x="18.97" y="4.81" width="1.4" height="1.4"/>
        <g>
          <polyline class="cls-1" points="25.47 4.81 20.37 0 20.37 4.81"/>
          <g>
            <rect class="cls-1" x="24.22" y="3.84" width=".96" height=".96"/>
            <rect class="cls-1" x="23.26" y="2.88" width=".96" height=".96"/>
            <rect class="cls-1" x="22.3" y="1.92" width=".96" height=".96"/>
            <rect class="cls-1" x="21.33" y=".96" width=".96" height=".96"/>
            <rect class="cls-1" x="20.37" y="0" width=".96" height=".96"/>
          </g>
        </g>
        <rect class="cls-2" x="23.26" y=".52" width="1.4" height="1.4"/>
        <g>
          <g>
            <rect class="cls-1" x="17.57" y="9.02" width="1.4" height="1.4"/>
            <rect class="cls-1" x="18.97" y="9.02" width="1.4" height="1.4"/>
          </g>
          <g>
            <rect class="cls-1" x="18.97" y="7.62" width="1.4" height="1.4"/>
            <rect class="cls-1" x="20.37" y="7.62" width="1.4" height="1.4"/>
          </g>
          <g>
            <rect class="cls-1" x="20.37" y="6.21" width="1.4" height="1.4"/>
            <rect class="cls-1" x="21.78" y="6.21" width="1.4" height="1.4"/>
          </g>
        </g>
        <g>
          <g>
            <rect class="cls-1" x="14.76" y="4.81" width="1.4" height="1.4"/>
            <rect class="cls-1" x="14.76" y="6.21" width="1.4" height="1.4"/>
          </g>
          <g>
            <rect class="cls-1" x="16.16" y="3.4" width="1.4" height="1.4"/>
            <rect class="cls-1" x="16.16" y="4.81" width="1.4" height="1.4"/>
          </g>
          <g>
            <rect class="cls-1" x="17.57" y="2" width="1.4" height="1.4"/>
            <rect class="cls-1" x="17.57" y="3.4" width="1.4" height="1.4"/>
          </g>
        </g>
      </g>
      <g>
        <rect class="cls-1" x="9.31" y="37.72" width="1.4" height="1.4"/>
        <rect class="cls-1" x="7.9" y="36.31" width="1.4" height="1.4"/>
        <rect class="cls-1" x="6.5" y="34.91" width="1.4" height="1.4"/>
        <rect class="cls-1" x="5.1" y="33.5" width="1.4" height="1.4"/>
        <g>
          <polyline class="cls-1" points="0 33.5 5.1 28.7 5.1 33.5"/>
          <g>
            <rect class="cls-1" x=".29" y="32.54" width=".96" height=".96"/>
            <rect class="cls-1" x="1.25" y="31.58" width=".96" height=".96"/>
            <rect class="cls-1" x="2.21" y="30.62" width=".96" height=".96"/>
            <rect class="cls-1" x="3.17" y="29.66" width=".96" height=".96"/>
            <rect class="cls-1" x="4.13" y="28.7" width=".96" height=".96"/>
          </g>
        </g>
        <rect class="cls-2" x=".81" y="29.22" width="1.4" height="1.4"/>
        <g>
          <g>
            <rect class="cls-1" x="6.5" y="37.72" width="1.4" height="1.4"/>
            <rect class="cls-1" x="5.1" y="37.72" width="1.4" height="1.4"/>
          </g>
          <g>
            <rect class="cls-1" x="5.1" y="36.31" width="1.4" height="1.4"/>
            <rect class="cls-1" x="3.69" y="36.31" width="1.4" height="1.4"/>
          </g>
          <g>
            <rect class="cls-1" x="3.69" y="34.91" width="1.4" height="1.4"/>
            <rect class="cls-1" x="2.29" y="34.91" width="1.4" height="1.4"/>
          </g>
        </g>
        <g>
          <g>
            <rect class="cls-1" x="9.31" y="33.5" width="1.4" height="1.4"/>
            <rect class="cls-1" x="9.31" y="34.91" width="1.4" height="1.4"/>
          </g>
          <g>
            <rect class="cls-1" x="7.9" y="32.1" width="1.4" height="1.4"/>
            <rect class="cls-1" x="7.9" y="33.5" width="1.4" height="1.4"/>
          </g>
          <g>
            <rect class="cls-1" x="6.5" y="30.69" width="1.4" height="1.4"/>
            <rect class="cls-1" x="6.5" y="32.1" width="1.4" height="1.4"/>
          </g>
        </g>
      </g>
      <g>
        <rect class="cls-1" x="9.31" y="23.17" width="1.4" height="1.4"/>
        <rect class="cls-1" x="7.9" y="21.76" width="1.4" height="1.4"/>
        <rect class="cls-1" x="6.5" y="20.36" width="1.4" height="1.4"/>
        <rect class="cls-1" x="5.1" y="18.95" width="1.4" height="1.4"/>
        <g>
          <polyline class="cls-1" points="0 18.95 5.1 14.15 5.1 18.95"/>
          <g>
            <rect class="cls-1" x=".29" y="17.99" width=".96" height=".96"/>
            <rect class="cls-1" x="1.25" y="17.03" width=".96" height=".96"/>
            <rect class="cls-1" x="2.21" y="16.07" width=".96" height=".96"/>
            <rect class="cls-1" x="3.17" y="15.11" width=".96" height=".96"/>
            <rect class="cls-1" x="4.13" y="14.15" width=".96" height=".96"/>
          </g>
        </g>
        <rect class="cls-2" x=".81" y="14.66" width="1.4" height="1.4"/>
        <g>
          <g>
            <rect class="cls-1" x="6.5" y="23.17" width="1.4" height="1.4"/>
            <rect class="cls-1" x="5.1" y="23.17" width="1.4" height="1.4"/>
          </g>
          <g>
            <rect class="cls-1" x="5.1" y="21.76" width="1.4" height="1.4"/>
            <rect class="cls-1" x="3.69" y="21.76" width="1.4" height="1.4"/>
          </g>
          <g>
            <rect class="cls-1" x="3.69" y="20.36" width="1.4" height="1.4"/>
            <rect class="cls-1" x="2.29" y="20.36" width="1.4" height="1.4"/>
          </g>
        </g>
        <g>
          <g>
            <rect class="cls-1" x="9.31" y="18.95" width="1.4" height="1.4"/>
            <rect class="cls-1" x="9.31" y="20.36" width="1.4" height="1.4"/>
          </g>
          <g>
            <rect class="cls-1" x="7.9" y="17.55" width="1.4" height="1.4"/>
            <rect class="cls-1" x="7.9" y="18.95" width="1.4" height="1.4"/>
          </g>
          <g>
            <rect class="cls-1" x="6.5" y="16.14" width="1.4" height="1.4"/>
            <rect class="cls-1" x="6.5" y="17.55" width="1.4" height="1.4"/>
          </g>
        </g>
      </g>
      <g>
        <rect class="cls-1" x="9.31" y="9.02" width="1.4" height="1.4"/>
        <rect class="cls-1" x="7.9" y="7.62" width="1.4" height="1.4"/>
        <rect class="cls-1" x="6.5" y="6.21" width="1.4" height="1.4"/>
        <rect class="cls-1" x="5.1" y="4.81" width="1.4" height="1.4"/>
        <g>
          <polyline class="cls-1" points="0 4.81 5.1 0 5.1 4.81"/>
          <g>
            <rect class="cls-1" x=".29" y="3.84" width=".96" height=".96"/>
            <rect class="cls-1" x="1.25" y="2.88" width=".96" height=".96"/>
            <rect class="cls-1" x="2.21" y="1.92" width=".96" height=".96"/>
            <rect class="cls-1" x="3.17" y=".96" width=".96" height=".96"/>
            <rect class="cls-1" x="4.13" y="0" width=".96" height=".96"/>
          </g>
        </g>
        <rect class="cls-2" x=".81" y=".52" width="1.4" height="1.4"/>
        <g>
          <g>
            <rect class="cls-1" x="6.5" y="9.02" width="1.4" height="1.4"/>
            <rect class="cls-1" x="5.1" y="9.02" width="1.4" height="1.4"/>
          </g>
          <g>
            <rect class="cls-1" x="5.1" y="7.62" width="1.4" height="1.4"/>
            <rect class="cls-1" x="3.69" y="7.62" width="1.4" height="1.4"/>
          </g>
          <g>
            <rect class="cls-1" x="3.69" y="6.21" width="1.4" height="1.4"/>
            <rect class="cls-1" x="2.29" y="6.21" width="1.4" height="1.4"/>
          </g>
        </g>
        <g>
          <g>
            <rect class="cls-1" x="9.31" y="4.81" width="1.4" height="1.4"/>
            <rect class="cls-1" x="9.31" y="6.21" width="1.4" height="1.4"/>
          </g>
          <g>
            <rect class="cls-1" x="7.9" y="3.4" width="1.4" height="1.4"/>
            <rect class="cls-1" x="7.9" y="4.81" width="1.4" height="1.4"/>
          </g>
          <g>
            <rect class="cls-1" x="6.5" y="2" width="1.4" height="1.4"/>
            <rect class="cls-1" x="6.5" y="3.4" width="1.4" height="1.4"/>
          </g>
        </g>
      </g>
    </g>
  </g>
</svg>