<?xml version="1.0" encoding="UTF-8"?>
<svg id="Layer_2" data-name="Layer 2" xmlns="http://www.w3.org/2000/svg" viewBox="0 0 25.77 10.72">
  <defs>
    <style>
      .cls-1 {
        fill: #d93a28;
      }

      .cls-2 {
        fill: #5d5f42;
      }

      .cls-3 {
        fill: #ca6e55;
      }

      .cls-4 {
        fill: #7edfec;
      }

      .cls-5 {
        fill: #e2cf98;
      }

      .cls-6 {
        fill: #37140e;
      }

      .cls-7 {
        fill: #852f59;
      }
    </style>
  </defs>
  <g id="Layer_1-2" data-name="Layer 1">
    <g>
      <rect class="cls-5" width="25.77" height="10.72" transform="translate(25.77 10.72) rotate(180)"/>
      <g>
        <path class="cls-4" d="M20.31,6.49h-3.13c-.17,0-.84,.08-1.4,.53-.39,.31-.31,.45-.72,.9-.43,.47-.91,.68-1.12,.78-1.18,.52-2.31,.18-2.64,.07-.41-.14-.98-.34-1.42-.87-.31-.38-.3-.57-.69-.89-.49-.4-1.02-.49-1.16-.51t-.78,0c-1.03,0-1.14,0-1.3,0-.08,0-.22,0-.4,0-.12,0-.17,0-.32,0-.15,0-.26,0-.33,0-.43,0-.85,0-1.28,0h-.36s-.06,0-.09,0c-.08,0-.17,0-.25,0q-.16,0-.16,0c-.18,0-.92-.47-.94-1.26-.02-.76,.66-1.32,.94-1.33,.04,0,.24,0,.42,0,.26,0,.24,0,.29,0,.06,0,.16-.02,.3,0,0,0,0,0,0,0,.04,0,.16,0,2.26,0,1.25,0,1.91-.02,2.68-.35,.03-.01,.05-.02,.07-.03,.83-.42,.73-.78,1.7-1.27,.31-.16,1.05-.52,2.07-.5,.36,0,1.27,.07,2.17,.64,.2,.13,.34,.25,.45,.36,.44,.44,.72,.7,.84,.83,.32,.32,1.19,.32,2.87,.33,.52,0,.67,0,1.35,0,.39,0,.74,.01,1.11,0,.05,0,.24,0,.51,0,.11,0,.17,0,.35,0,.4,0,.47,0,.5,0,.2,0,1.21,.37,1.25,1.23,.03,.8-.82,1.33-1.31,1.36h-2.34Z"/>
        <g>
          <g>
            <circle class="cls-2" cx="14.43" cy="7.49" r=".73"/>
            <circle class="cls-2" cx="12.46" cy="8.01" r=".73"/>
            <circle class="cls-2" cx="10.49" cy="7.49" r=".73"/>
          </g>
          <g>
            <circle class="cls-2" cx="14.42" cy="3.1" r=".73"/>
            <circle class="cls-2" cx="12.46" cy="2.57" r=".73"/>
            <circle class="cls-2" cx="10.49" cy="3.1" r=".73"/>
          </g>
          <g>
            <g>
              <path class="cls-6" d="M21.86,6.19h-6.49c-.07,.21-.44,1.17-1.49,1.69-1.19,.6-2.32,.16-2.5,.08-1.22-.5-1.65-1.6-1.71-1.78H4.07c-.57,.01-1.05-.46-1.03-1.02,.01-.54,.48-.99,1.03-.97h5.59c.13-.27,.5-.98,1.33-1.44,1.25-.69,2.49-.24,2.67-.17,1.08,.41,1.58,1.28,1.7,1.52,2.16,.01,4.32,.03,6.49,.04,.52,.09,.89,.55,.87,1.06-.02,.48-.38,.89-.87,.97Z"/>
              <g>
                <circle class="cls-1" cx="21.5" cy="5.19" r=".52"/>
                <circle class="cls-7" cx="20.63" cy="5.19" r=".35"/>
              </g>
              <g>
                <circle class="cls-1" cx="4.03" cy="5.19" r=".52"/>
                <circle class="cls-7" cx="4.89" cy="5.19" r=".35"/>
              </g>
            </g>
            <g>
              <circle class="cls-3" cx="12.5" cy="5.29" r="2.73"/>
              <circle class="cls-5" cx="12.5" cy="7.26" r=".55"/>
              <circle class="cls-5" cx="13.94" cy="6.71" r=".55"/>
              <circle class="cls-5" cx="10.97" cy="6.71" r=".55"/>
              <circle class="cls-5" cx="14.49" cy="5.29" r=".55"/>
              <circle class="cls-5" cx="10.49" cy="5.29" r=".55"/>
              <circle class="cls-5" cx="14.02" cy="3.87" r=".55"/>
              <circle class="cls-5" cx="12.5" cy="3.32" r=".55"/>
              <circle class="cls-5" cx="11.04" cy="3.87" r=".55"/>
              <circle class="cls-6" cx="12.5" cy="5.29" r=".77"/>
            </g>
          </g>
        </g>
      </g>
    </g>
  </g>
</svg>